<svg width="1200" height="1595" viewBox="0 0 1200 1595" fill="none" xmlns="http://www.w3.org/2000/svg">
<g clip-path="url(#clip0_2550_12085)">
<g filter="url(#filter0_f_2550_12085)">
<g clip-path="url(#clip1_2550_12085)">
<rect width="1200" height="1595" fill="#1D1D1D"/>
<g clip-path="url(#clip2_2550_12085)">
<rect width="240" height="1595" fill="#131313"/>
<path d="M37.6134 24H22.3866C21.066 24 20 25.066 20 26.3866V41.6134C20 42.934 21.066 44 22.3866 44H37.6134C38.934 44 40 42.934 40 41.6134V26.3866C40 25.066 38.934 24 37.6134 24ZM35.1153 34.175C34.9562 34.6364 34.6858 35.3206 34.288 35.965C33.8663 36.6571 33.397 37.1344 32.9037 37.3731C32.6492 37.5004 32.3866 37.564 32.1241 37.564C32.0207 37.564 31.9173 37.5561 31.8218 37.5322C31.4558 37.4606 31.1058 37.2776 30.7876 36.9674C30.2307 36.4264 29.7534 35.5115 29.3158 34.1591C28.8783 32.7987 28.4805 32.2259 28.2259 31.9793C28.0986 31.86 28.0191 31.8282 27.9793 31.8202C27.9554 31.8202 27.9157 31.8202 27.8361 31.852C27.6134 31.9554 27.3349 32.2578 27.0644 32.6873C26.8019 33.101 26.5473 33.6261 26.3484 34.183C26.2052 34.5807 25.7677 34.7876 25.362 34.6444C25.1631 34.5728 25.004 34.4375 24.9165 34.2466C24.829 34.0636 24.821 33.8568 24.8846 33.6659C25.0517 33.2044 25.3381 32.5203 25.7438 31.8759C26.1814 31.1838 26.6587 30.7144 27.1599 30.4757C27.5179 30.3087 27.8838 30.253 28.2498 30.3166C28.6237 30.3803 28.9737 30.5712 29.292 30.8735C29.8568 31.4145 30.3421 32.3373 30.7796 33.6897C31.2172 35.0501 31.607 35.6309 31.8616 35.8695C31.9889 35.9968 32.0684 36.0207 32.0923 36.0207C32.1082 36.0207 32.14 36.0286 32.2116 35.9889C32.4264 35.8854 32.6969 35.5831 32.9515 35.1615C33.206 34.7478 33.4447 34.2148 33.6356 33.6659C33.7709 33.2681 34.2084 33.0533 34.6142 33.1885C34.813 33.2522 34.9721 33.3954 35.0676 33.5784C35.1551 33.7613 35.171 33.9682 35.1074 34.1591L35.1153 34.175Z" fill="#FAFAFA"/>
<path d="M56.293 34.2621C56.6112 33.7529 56.7703 33.1324 56.7703 32.4085C56.7703 31.6845 56.6112 31.0719 56.301 30.5469C55.9907 30.0218 55.5452 29.6161 54.9724 29.3377C54.3996 29.0513 53.7234 28.916 52.9358 28.916H48.6001V39.4013H51.1379V35.8134H52.4346L54.3519 39.4013H57.1204L54.9485 35.4077C55.5293 35.1451 55.9748 34.7553 56.2851 34.2541L56.293 34.2621ZM51.1458 30.9606H52.3948C52.7767 30.9606 53.0949 31.0163 53.3495 31.1276C53.612 31.2311 53.803 31.3902 53.9382 31.605C54.0734 31.8198 54.1371 32.0823 54.1371 32.4085C54.1371 32.7346 54.0734 32.9972 53.9382 33.204C53.803 33.4108 53.612 33.562 53.3495 33.6654C53.0949 33.7609 52.7767 33.8166 52.3948 33.8166H51.1458V30.9606Z" fill="#FAFAFA"/>
<path d="M62.5854 28.916H60.0476V39.4013H62.5854V28.916Z" fill="#FAFAFA"/>
<path d="M70.8672 36.593H70.7797L68.4329 28.916H65.5928L69.1329 39.4013H72.5061L76.0462 28.916H73.2061L70.8672 36.593Z" fill="#FAFAFA"/>
<path d="M79.0532 39.4013H86.3722V37.3408H81.591V35.1849H85.9983V33.1244H81.591V30.9765H86.3722V28.916H79.0532V39.4013Z" fill="#FAFAFA"/>
<path d="M97.5179 34.2621C97.8361 33.7529 97.9952 33.1324 97.9952 32.4085C97.9952 31.6845 97.8361 31.0719 97.5258 30.5469C97.2156 30.0218 96.7701 29.6161 96.1973 29.3377C95.6245 29.0513 94.9483 28.916 94.1607 28.916H89.825V39.4013H92.3627V35.8134H93.6595L95.5767 39.4013H98.3452L96.1734 35.4077C96.7541 35.1451 97.1997 34.7553 97.5099 34.2541L97.5179 34.2621ZM92.3707 30.9606H93.6197C94.0016 30.9606 94.3198 31.0163 94.5744 31.1276C94.8369 31.2311 95.0278 31.3902 95.1631 31.605C95.2983 31.8198 95.3619 32.0823 95.3619 32.4085C95.3619 32.7346 95.2983 32.9972 95.1631 33.204C95.0278 33.4108 94.8369 33.562 94.5744 33.6654C94.3198 33.7609 94.0016 33.8166 93.6197 33.8166H92.3707V30.9606Z" fill="#FAFAFA"/>
<path d="M108.671 34.3265C108.401 34.064 108.067 33.8412 107.669 33.6582C107.271 33.4673 106.818 33.3241 106.301 33.2048L105.402 32.9979C105.163 32.9502 104.948 32.8865 104.757 32.8149C104.566 32.7433 104.399 32.6717 104.264 32.5763C104.129 32.4808 104.025 32.3774 103.954 32.2581C103.882 32.1387 103.858 32.0035 103.858 31.8444C103.858 31.6535 103.922 31.4864 104.025 31.3352C104.137 31.1841 104.296 31.0647 104.519 30.9852C104.741 30.8977 105.012 30.8579 105.338 30.8579C105.831 30.8579 106.213 30.9613 106.484 31.1761C106.754 31.383 106.905 31.6773 106.937 32.0512H109.364C109.364 31.3989 109.189 30.8261 108.854 30.3328C108.52 29.8396 108.059 29.4577 107.454 29.1793C106.858 28.9009 106.15 28.7656 105.338 28.7656C104.527 28.7656 103.835 28.9009 103.214 29.1714C102.594 29.4418 102.108 29.8237 101.75 30.3169C101.4 30.8022 101.225 31.375 101.225 32.0194C101.225 32.8149 101.48 33.4434 102.005 33.9128C102.53 34.3742 103.238 34.7163 104.153 34.9231L105.251 35.1777C105.632 35.2652 105.951 35.3607 106.189 35.4721C106.436 35.5755 106.619 35.6948 106.746 35.838C106.866 35.9812 106.929 36.1483 106.929 36.3472C106.929 36.562 106.858 36.7449 106.73 36.912C106.603 37.0791 106.412 37.2064 106.173 37.2939C105.935 37.3893 105.648 37.4291 105.306 37.4291C104.932 37.4291 104.606 37.3734 104.32 37.2541C104.041 37.1348 103.819 36.9677 103.66 36.7449C103.5 36.5222 103.405 36.2358 103.389 35.9017H100.963C100.971 36.7211 101.162 37.3973 101.52 37.9383C101.885 38.4713 102.387 38.877 103.039 39.1395C103.691 39.4021 104.455 39.5373 105.33 39.5373C106.205 39.5373 106.953 39.41 107.566 39.1554C108.186 38.9009 108.664 38.5429 108.998 38.0655C109.332 37.5882 109.499 37.0234 109.499 36.3631C109.499 35.9414 109.427 35.5675 109.284 35.2254C109.141 34.8913 108.942 34.589 108.664 34.3265H108.671Z" fill="#FAFAFA"/>
<path d="M115.203 28.916H112.665V39.4013H115.203V28.916Z" fill="#FAFAFA"/>
<path d="M125.306 29.5445C124.534 29.1229 123.611 28.916 122.545 28.916H118.671V39.4013H122.545C123.611 39.4013 124.526 39.1944 125.306 38.7728C126.078 38.3512 126.674 37.7466 127.096 36.9669C127.518 36.1793 127.724 35.2406 127.724 34.1507C127.724 33.0608 127.518 32.13 127.096 31.3424C126.674 30.5548 126.078 29.9582 125.306 29.5365V29.5445ZM124.868 35.9645C124.662 36.418 124.351 36.7442 123.946 36.9431C123.54 37.1419 123.039 37.2374 122.458 37.2374H121.217V31.0719H122.426C123.031 31.0719 123.532 31.1754 123.946 31.3742C124.359 31.5731 124.67 31.8993 124.884 32.3448C125.099 32.7903 125.203 33.3949 125.203 34.1507C125.203 34.9065 125.099 35.5111 124.884 35.9645H124.868Z" fill="#FAFAFA"/>
<path d="M131.09 39.4013H138.401V37.3408H133.628V35.1849H138.027V33.1244H133.628V30.9765H138.401V28.916H131.09V39.4013Z" fill="#FAFAFA"/>
<g clip-path="url(#clip3_2550_12085)">
<path d="M36 92L33.1 89.1M34.6667 85.3333C34.6667 88.2789 32.2789 90.6667 29.3333 90.6667C26.3878 90.6667 24 88.2789 24 85.3333C24 82.3878 26.3878 80 29.3333 80C32.2789 80 34.6667 82.3878 34.6667 85.3333Z" stroke="#555555" stroke-width="1.5" stroke-linecap="round" stroke-linejoin="round"/>
<path d="M57.4929 83.7827C57.4588 83.4389 57.3125 83.1719 57.054 82.9815C56.7955 82.7912 56.4446 82.696 56.0014 82.696C55.7003 82.696 55.446 82.7386 55.2386 82.8239C55.0313 82.9062 54.8722 83.0213 54.7614 83.169C54.6534 83.3168 54.5994 83.4844 54.5994 83.6719C54.5938 83.8281 54.6264 83.9645 54.6974 84.081C54.7713 84.1974 54.8722 84.2983 55 84.3835C55.1278 84.4659 55.2756 84.5384 55.4432 84.6009C55.6108 84.6605 55.7898 84.7116 55.9801 84.7543L56.7642 84.9418C57.1449 85.027 57.4943 85.1406 57.8125 85.2827C58.1307 85.4247 58.4063 85.5994 58.6392 85.8068C58.8722 86.0142 59.0526 86.2585 59.1804 86.5398C59.3111 86.821 59.3778 87.1435 59.3807 87.5071C59.3778 88.0412 59.2415 88.5043 58.9716 88.8963C58.7045 89.2855 58.3182 89.5881 57.8125 89.804C57.3097 90.017 56.7031 90.1236 55.9929 90.1236C55.2884 90.1236 54.6747 90.0156 54.152 89.7997C53.6321 89.5838 53.2259 89.2642 52.9332 88.8409C52.6435 88.4148 52.4915 87.8878 52.4773 87.2599H54.2628C54.2827 87.5526 54.3665 87.7969 54.5142 87.9929C54.6648 88.1861 54.8651 88.3324 55.1151 88.4318C55.3679 88.5284 55.6534 88.5767 55.9716 88.5767C56.2841 88.5767 56.5554 88.5312 56.7855 88.4403C57.0185 88.3494 57.1989 88.223 57.3267 88.0611C57.4545 87.8991 57.5185 87.7131 57.5185 87.5028C57.5185 87.3068 57.4602 87.142 57.3438 87.0085C57.2301 86.875 57.0625 86.7614 56.8409 86.6676C56.6222 86.5739 56.3537 86.4886 56.0355 86.4119L55.0852 86.1733C54.3494 85.9943 53.7685 85.7145 53.3423 85.3338C52.9162 84.9531 52.7045 84.4403 52.7074 83.7955C52.7045 83.267 52.8452 82.8054 53.1293 82.4105C53.4162 82.0156 53.8097 81.7074 54.3097 81.4858C54.8097 81.2642 55.3778 81.1534 56.0142 81.1534C56.6619 81.1534 57.2273 81.2642 57.7102 81.4858C58.196 81.7074 58.5739 82.0156 58.8438 82.4105C59.1136 82.8054 59.2528 83.2628 59.2614 83.7827H57.4929ZM64.2692 83.4545V84.8182H60.3275V83.4545H64.2692ZM61.2224 81.8864H63.0377V87.9886C63.0377 88.1562 63.0633 88.2869 63.1144 88.3807C63.1656 88.4716 63.2366 88.5355 63.3275 88.5724C63.4212 88.6094 63.5292 88.6278 63.6513 88.6278C63.7366 88.6278 63.8218 88.6207 63.907 88.6065C63.9923 88.5895 64.0576 88.5767 64.1031 88.5682L64.3886 89.919C64.2977 89.9474 64.1698 89.9801 64.005 90.017C63.8403 90.0568 63.64 90.081 63.4042 90.0895C62.9667 90.1065 62.5832 90.0483 62.2536 89.9148C61.9269 89.7812 61.6727 89.5739 61.4908 89.2926C61.309 89.0114 61.2195 88.6562 61.2224 88.2273V81.8864ZM69.8492 87.2131V83.4545H71.6646V90H69.9217V88.8111H69.8535C69.7058 89.1946 69.46 89.5028 69.1163 89.7358C68.7754 89.9687 68.3592 90.0852 67.8677 90.0852C67.4302 90.0852 67.0452 89.9858 66.7129 89.7869C66.3805 89.5881 66.1205 89.3054 65.933 88.9389C65.7484 88.5724 65.6546 88.1335 65.6518 87.6222V83.4545H67.4671V87.2983C67.47 87.6847 67.5737 87.9901 67.7782 88.2145C67.9827 88.4389 68.2569 88.5511 68.6006 88.5511C68.8194 88.5511 69.0239 88.5014 69.2143 88.402C69.4046 88.2997 69.558 88.1491 69.6745 87.9503C69.7938 87.7514 69.8521 87.5057 69.8492 87.2131ZM75.7286 90.1065C75.2314 90.1065 74.7811 89.9787 74.3777 89.723C73.9771 89.4645 73.6589 89.0852 73.4232 88.5852C73.1902 88.0824 73.0737 87.4659 73.0737 86.7358C73.0737 85.9858 73.1945 85.3622 73.4359 84.8651C73.6774 84.3651 73.9984 83.9915 74.399 83.7443C74.8024 83.4943 75.2442 83.3693 75.7243 83.3693C76.0908 83.3693 76.3962 83.4318 76.6405 83.5568C76.8876 83.679 77.0865 83.8324 77.2371 84.017C77.3905 84.1989 77.507 84.3778 77.5865 84.554H77.6419V81.2727H79.453V90H77.6632V88.9517H77.5865C77.5013 89.1335 77.3805 89.3139 77.2243 89.4929C77.0709 89.669 76.8706 89.8153 76.6234 89.9318C76.3791 90.0483 76.0808 90.1065 75.7286 90.1065ZM76.3038 88.6619C76.5964 88.6619 76.8436 88.5824 77.0453 88.4233C77.2499 88.2614 77.4061 88.0355 77.5141 87.7457C77.6249 87.456 77.6803 87.1165 77.6803 86.7273C77.6803 86.3381 77.6263 86 77.5183 85.7131C77.4104 85.4261 77.2541 85.2045 77.0496 85.0483C76.845 84.892 76.5964 84.8139 76.3038 84.8139C76.0055 84.8139 75.7541 84.8949 75.5496 85.0568C75.345 85.2187 75.1902 85.4432 75.0851 85.7301C74.98 86.017 74.9274 86.3494 74.9274 86.7273C74.9274 87.108 74.98 87.4446 75.0851 87.7372C75.193 88.027 75.3479 88.2543 75.5496 88.419C75.7541 88.581 76.0055 88.6619 76.3038 88.6619ZM81.1455 90V83.4545H82.9609V90H81.1455ZM82.0575 82.6108C81.7876 82.6108 81.556 82.5213 81.3629 82.3423C81.1725 82.1605 81.0773 81.9432 81.0773 81.6903C81.0773 81.4403 81.1725 81.2259 81.3629 81.0469C81.556 80.8651 81.7876 80.7741 82.0575 80.7741C82.3273 80.7741 82.5575 80.8651 82.7478 81.0469C82.941 81.2259 83.0376 81.4403 83.0376 81.6903C83.0376 81.9432 82.941 82.1605 82.7478 82.3423C82.5575 82.5213 82.3273 82.6108 82.0575 82.6108ZM87.5724 90.1278C86.9105 90.1278 86.3381 89.9872 85.8551 89.706C85.375 89.4219 85.0043 89.027 84.7429 88.5213C84.4815 88.0128 84.3509 87.4233 84.3509 86.7528C84.3509 86.0767 84.4815 85.4858 84.7429 84.9801C85.0043 84.4716 85.375 84.0767 85.8551 83.7955C86.3381 83.5114 86.9105 83.3693 87.5724 83.3693C88.2344 83.3693 88.8054 83.5114 89.2855 83.7955C89.7685 84.0767 90.1406 84.4716 90.402 84.9801C90.6634 85.4858 90.794 86.0767 90.794 86.7528C90.794 87.4233 90.6634 88.0128 90.402 88.5213C90.1406 89.027 89.7685 89.4219 89.2855 89.706C88.8054 89.9872 88.2344 90.1278 87.5724 90.1278ZM87.581 88.7216C87.8821 88.7216 88.1335 88.6364 88.3352 88.4659C88.5369 88.2926 88.6889 88.0568 88.7912 87.7585C88.8963 87.4602 88.9489 87.1207 88.9489 86.7401C88.9489 86.3594 88.8963 86.0199 88.7912 85.7216C88.6889 85.4233 88.5369 85.1875 88.3352 85.0142C88.1335 84.8409 87.8821 84.7543 87.581 84.7543C87.277 84.7543 87.0213 84.8409 86.8139 85.0142C86.6094 85.1875 86.4545 85.4233 86.3494 85.7216C86.2472 86.0199 86.196 86.3594 86.196 86.7401C86.196 87.1207 86.2472 87.4602 86.3494 87.7585C86.4545 88.0568 86.6094 88.2926 86.8139 88.4659C87.0213 88.6364 87.277 88.7216 87.581 88.7216ZM97.6205 85.321L95.9585 85.4233C95.9301 85.2812 95.869 85.1534 95.7753 85.0398C95.6815 84.9233 95.558 84.831 95.4045 84.7628C95.254 84.6918 95.0736 84.6562 94.8634 84.6562C94.5821 84.6562 94.3449 84.7159 94.1517 84.8352C93.9585 84.9517 93.8619 85.108 93.8619 85.304C93.8619 85.4602 93.9244 85.5923 94.0494 85.7003C94.1744 85.8082 94.3889 85.8949 94.6929 85.9602L95.8776 86.1989C96.5139 86.3295 96.9884 86.5398 97.3009 86.8295C97.6134 87.1193 97.7696 87.5 97.7696 87.9716C97.7696 88.4006 97.6432 88.777 97.3903 89.1009C97.1403 89.4247 96.7966 89.6776 96.3591 89.8594C95.9244 90.0384 95.423 90.1278 94.8548 90.1278C93.9884 90.1278 93.298 89.9474 92.7838 89.5866C92.2724 89.223 91.9727 88.7287 91.8847 88.1037L93.6702 88.0099C93.7241 88.2741 93.8548 88.4759 94.0622 88.6151C94.2696 88.7514 94.5352 88.8196 94.8591 88.8196C95.1773 88.8196 95.433 88.7585 95.6261 88.6364C95.8222 88.5114 95.9216 88.3509 95.9244 88.1548C95.9216 87.9901 95.852 87.8551 95.7156 87.75C95.5793 87.642 95.369 87.5597 95.0849 87.5028L93.9514 87.277C93.3122 87.1491 92.8364 86.9276 92.5239 86.6122C92.2142 86.2969 92.0594 85.8949 92.0594 85.4062C92.0594 84.9858 92.173 84.6236 92.4003 84.3196C92.6304 84.0156 92.9528 83.7812 93.3676 83.6165C93.7852 83.4517 94.2739 83.3693 94.8335 83.3693C95.6602 83.3693 96.3108 83.544 96.7852 83.8935C97.2625 84.2429 97.5409 84.7187 97.6205 85.321Z" fill="#555555"/>
<path d="M210 80.1665V91.8332M204.167 85.9998H215.833" stroke="#BBBBBB" stroke-width="1.5" stroke-linecap="round" stroke-linejoin="round"/>
<g filter="url(#filter1_d_2550_12085)">
<rect x="168.5" y="40" width="84" height="28" rx="8" fill="#383838" shape-rendering="crispEdges"/>
</g>
</g>
<rect x="12" y="112" width="216" height="44" rx="10" fill="#1D1D1D"/>
<rect x="20" y="120" width="28" height="28" rx="8" fill="#2B2B2B"/>
<path d="M37.2866 130V138H35.9976L32.228 132.551H32.1616V138H30.7124V130H32.0093L35.7749 135.453H35.8452V130H37.2866Z" fill="#FAFAFA"/>
<path d="M68.0327 129.273V138H66.6264L62.5142 132.055H62.4418V138H60.8608V129.273H62.2756L66.3835 135.222H66.4602V129.273H68.0327ZM71.7707 138.132C71.3559 138.132 70.9823 138.058 70.6499 137.911C70.3204 137.76 70.059 137.538 69.8658 137.246C69.6755 136.953 69.5803 136.592 69.5803 136.163C69.5803 135.794 69.6485 135.489 69.7849 135.247C69.9212 135.006 70.1073 134.812 70.3431 134.668C70.5789 134.523 70.8445 134.413 71.14 134.339C71.4383 134.263 71.7465 134.207 72.0647 134.173C72.4482 134.134 72.7593 134.098 72.9979 134.067C73.2366 134.033 73.4099 133.982 73.5178 133.913C73.6286 133.842 73.684 133.733 73.684 133.585V133.56C73.684 133.239 73.5888 132.99 73.3985 132.814C73.2082 132.638 72.934 132.55 72.5761 132.55C72.1982 132.55 71.8985 132.632 71.6769 132.797C71.4582 132.962 71.3104 133.156 71.2337 133.381L69.7934 133.176C69.907 132.778 70.0945 132.446 70.3559 132.179C70.6173 131.909 70.9369 131.707 71.3147 131.574C71.6925 131.438 72.1102 131.369 72.5675 131.369C72.8829 131.369 73.1968 131.406 73.5093 131.48C73.8218 131.554 74.1073 131.676 74.3658 131.847C74.6244 132.014 74.8317 132.243 74.988 132.533C75.1471 132.822 75.2266 133.185 75.2266 133.619V138H73.7437V137.101H73.6925C73.5988 137.283 73.4667 137.453 73.2962 137.612C73.1286 137.768 72.917 137.895 72.6613 137.991C72.4085 138.085 72.1116 138.132 71.7707 138.132ZM72.1712 136.999C72.4809 136.999 72.7494 136.937 72.9766 136.815C73.2039 136.69 73.3786 136.526 73.5008 136.321C73.6258 136.116 73.6883 135.893 73.6883 135.652V134.881C73.64 134.92 73.5576 134.957 73.4411 134.991C73.3275 135.026 73.1996 135.055 73.0576 135.081C72.9156 135.107 72.7749 135.129 72.6357 135.149C72.4965 135.169 72.3758 135.186 72.2735 135.2C72.0434 135.232 71.8374 135.283 71.6556 135.354C71.4738 135.425 71.3303 135.524 71.2252 135.652C71.1201 135.777 71.0675 135.939 71.0675 136.138C71.0675 136.422 71.1712 136.636 71.3786 136.781C71.586 136.926 71.8502 136.999 72.1712 136.999ZM79.4067 138.115C78.8925 138.115 78.4323 137.983 78.0261 137.719C77.6198 137.455 77.2988 137.071 77.063 136.568C76.8272 136.065 76.7093 135.455 76.7093 134.736C76.7093 134.009 76.8286 133.395 77.0673 132.895C77.3087 132.392 77.634 132.013 78.0431 131.757C78.4522 131.499 78.9082 131.369 79.411 131.369C79.7945 131.369 80.1099 131.435 80.357 131.565C80.6042 131.693 80.8002 131.848 80.9451 132.03C81.09 132.209 81.2022 132.378 81.2817 132.537H81.3457V129.273H82.8925V138H81.3755V136.969H81.2817C81.2022 137.128 81.0871 137.297 80.9366 137.476C80.786 137.652 80.5871 137.803 80.34 137.928C80.0928 138.053 79.7817 138.115 79.4067 138.115ZM79.8371 136.849C80.1638 136.849 80.4423 136.761 80.6724 136.585C80.9025 136.406 81.0772 136.158 81.1965 135.839C81.3158 135.521 81.3755 135.151 81.3755 134.727C81.3755 134.304 81.3158 133.936 81.1965 133.624C81.08 133.311 80.9067 133.068 80.6766 132.895C80.4494 132.722 80.1695 132.635 79.8371 132.635C79.4934 132.635 79.2065 132.724 78.9763 132.903C78.7462 133.082 78.5729 133.33 78.4565 133.645C78.34 133.96 78.2817 134.321 78.2817 134.727C78.2817 135.136 78.34 135.501 78.4565 135.822C78.5758 136.141 78.7505 136.392 78.9806 136.577C79.2136 136.759 79.4991 136.849 79.8371 136.849ZM86.6199 138.132C86.2051 138.132 85.8315 138.058 85.4991 137.911C85.1696 137.76 84.9082 137.538 84.7151 137.246C84.5247 136.953 84.4295 136.592 84.4295 136.163C84.4295 135.794 84.4977 135.489 84.6341 135.247C84.7705 135.006 84.9565 134.812 85.1923 134.668C85.4281 134.523 85.6938 134.413 85.9892 134.339C86.2875 134.263 86.5957 134.207 86.9139 134.173C87.2974 134.134 87.6085 134.098 87.8472 134.067C88.0858 134.033 88.2591 133.982 88.367 133.913C88.4778 133.842 88.5332 133.733 88.5332 133.585V133.56C88.5332 133.239 88.4381 132.99 88.2477 132.814C88.0574 132.638 87.7832 132.55 87.4253 132.55C87.0474 132.55 86.7477 132.632 86.5261 132.797C86.3074 132.962 86.1597 133.156 86.083 133.381L84.6426 133.176C84.7563 132.778 84.9438 132.446 85.2051 132.179C85.4665 131.909 85.7861 131.707 86.1639 131.574C86.5418 131.438 86.9594 131.369 87.4168 131.369C87.7321 131.369 88.046 131.406 88.3585 131.48C88.671 131.554 88.9565 131.676 89.2151 131.847C89.4736 132.014 89.681 132.243 89.8372 132.533C89.9963 132.822 90.0759 133.185 90.0759 133.619V138H88.5929V137.101H88.5418C88.448 137.283 88.3159 137.453 88.1455 137.612C87.9778 137.768 87.7662 137.895 87.5105 137.991C87.2577 138.085 86.9608 138.132 86.6199 138.132ZM87.0205 136.999C87.3301 136.999 87.5986 136.937 87.8259 136.815C88.0531 136.69 88.2278 136.526 88.35 136.321C88.475 136.116 88.5375 135.893 88.5375 135.652V134.881C88.4892 134.92 88.4068 134.957 88.2903 134.991C88.1767 135.026 88.0489 135.055 87.9068 135.081C87.7648 135.107 87.6241 135.129 87.4849 135.149C87.3457 135.169 87.225 135.186 87.1227 135.2C86.8926 135.232 86.6866 135.283 86.5048 135.354C86.323 135.425 86.1795 135.524 86.0744 135.652C85.9693 135.777 85.9168 135.939 85.9168 136.138C85.9168 136.422 86.0205 136.636 86.2278 136.781C86.4352 136.926 86.6994 136.999 87.0205 136.999ZM97.4392 131.455L95.1082 138H93.4037L91.0727 131.455H92.7176L94.2219 136.317H94.2901L95.7986 131.455H97.4392ZM100.402 129.273V130.142C100.402 130.392 100.353 130.652 100.257 130.922C100.163 131.189 100.034 131.445 99.869 131.689C99.7042 131.93 99.5167 132.138 99.3065 132.311L98.5906 131.847C98.7468 131.611 98.8832 131.357 98.9996 131.084C99.1161 130.808 99.1744 130.497 99.1744 130.151V129.273H100.402ZM106.178 133.185L104.771 133.338C104.732 133.196 104.662 133.062 104.563 132.938C104.466 132.812 104.335 132.712 104.171 132.635C104.006 132.558 103.804 132.52 103.565 132.52C103.244 132.52 102.975 132.589 102.756 132.729C102.54 132.868 102.433 133.048 102.436 133.27C102.433 133.46 102.503 133.615 102.645 133.734C102.79 133.854 103.028 133.952 103.361 134.028L104.477 134.267C105.097 134.401 105.557 134.612 105.858 134.902C106.162 135.192 106.315 135.571 106.318 136.04C106.315 136.452 106.195 136.815 105.956 137.131C105.72 137.443 105.392 137.687 104.972 137.864C104.551 138.04 104.068 138.128 103.523 138.128C102.722 138.128 102.077 137.96 101.588 137.625C101.1 137.287 100.808 136.817 100.715 136.214L102.219 136.07C102.287 136.365 102.432 136.588 102.653 136.739C102.875 136.889 103.163 136.964 103.519 136.964C103.885 136.964 104.179 136.889 104.401 136.739C104.625 136.588 104.737 136.402 104.737 136.18C104.737 135.993 104.665 135.838 104.52 135.716C104.378 135.594 104.156 135.5 103.855 135.435L102.739 135.2C102.111 135.07 101.646 134.849 101.345 134.54C101.044 134.227 100.895 133.832 100.898 133.355C100.895 132.952 101.004 132.602 101.226 132.307C101.45 132.009 101.761 131.778 102.159 131.616C102.56 131.452 103.021 131.369 103.544 131.369C104.311 131.369 104.915 131.533 105.355 131.859C105.798 132.186 106.073 132.628 106.178 133.185ZM116.14 133.185L114.734 133.338C114.694 133.196 114.625 133.062 114.525 132.938C114.428 132.812 114.298 132.712 114.133 132.635C113.968 132.558 113.767 132.52 113.528 132.52C113.207 132.52 112.937 132.589 112.718 132.729C112.502 132.868 112.396 133.048 112.399 133.27C112.396 133.46 112.465 133.615 112.607 133.734C112.752 133.854 112.991 133.952 113.323 134.028L114.44 134.267C115.059 134.401 115.519 134.612 115.821 134.902C116.125 135.192 116.278 135.571 116.281 136.04C116.278 136.452 116.157 136.815 115.919 137.131C115.683 137.443 115.355 137.687 114.934 137.864C114.514 138.04 114.031 138.128 113.485 138.128C112.684 138.128 112.039 137.96 111.551 137.625C111.062 137.287 110.771 136.817 110.677 136.214L112.181 136.07C112.25 136.365 112.394 136.588 112.616 136.739C112.838 136.889 113.126 136.964 113.481 136.964C113.848 136.964 114.142 136.889 114.363 136.739C114.588 136.588 114.7 136.402 114.7 136.18C114.7 135.993 114.627 135.838 114.482 135.716C114.34 135.594 114.119 135.5 113.818 135.435L112.701 135.2C112.073 135.07 111.609 134.849 111.308 134.54C111.007 134.227 110.857 133.832 110.86 133.355C110.857 132.952 110.967 132.602 111.188 132.307C111.413 132.009 111.724 131.778 112.122 131.616C112.522 131.452 112.984 131.369 113.507 131.369C114.274 131.369 114.877 131.533 115.318 131.859C115.761 132.186 116.035 132.628 116.14 133.185ZM121.021 131.455V132.648H117.258V131.455H121.021ZM118.187 129.886H119.73V136.031C119.73 136.239 119.761 136.398 119.824 136.509C119.889 136.616 119.974 136.69 120.079 136.73C120.185 136.77 120.301 136.79 120.429 136.79C120.525 136.79 120.614 136.783 120.693 136.768C120.775 136.754 120.838 136.741 120.881 136.73L121.141 137.936C121.058 137.964 120.94 137.996 120.787 138.03C120.636 138.064 120.452 138.084 120.233 138.089C119.847 138.101 119.499 138.043 119.189 137.915C118.879 137.784 118.633 137.582 118.452 137.31C118.273 137.037 118.185 136.696 118.187 136.287V129.886ZM126.683 135.247V131.455H128.226V138H126.73V136.837H126.662C126.514 137.203 126.271 137.503 125.933 137.736C125.598 137.969 125.185 138.085 124.693 138.085C124.264 138.085 123.885 137.99 123.555 137.8C123.229 137.607 122.973 137.327 122.788 136.96C122.604 136.591 122.511 136.145 122.511 135.622V131.455H124.054V135.384C124.054 135.798 124.168 136.128 124.395 136.372C124.622 136.616 124.92 136.739 125.29 136.739C125.517 136.739 125.737 136.683 125.95 136.572C126.163 136.462 126.338 136.297 126.474 136.078C126.614 135.857 126.683 135.58 126.683 135.247ZM132.441 138.115C131.927 138.115 131.467 137.983 131.06 137.719C130.654 137.455 130.333 137.071 130.097 136.568C129.862 136.065 129.744 135.455 129.744 134.736C129.744 134.009 129.863 133.395 130.102 132.895C130.343 132.392 130.668 132.013 131.077 131.757C131.487 131.499 131.943 131.369 132.445 131.369C132.829 131.369 133.144 131.435 133.391 131.565C133.639 131.693 133.835 131.848 133.979 132.03C134.124 132.209 134.237 132.378 134.316 132.537H134.38V129.273H135.927V138H134.41V136.969H134.316C134.237 137.128 134.122 137.297 133.971 137.476C133.82 137.652 133.622 137.803 133.374 137.928C133.127 138.053 132.816 138.115 132.441 138.115ZM132.872 136.849C133.198 136.849 133.477 136.761 133.707 136.585C133.937 136.406 134.112 136.158 134.231 135.839C134.35 135.521 134.41 135.151 134.41 134.727C134.41 134.304 134.35 133.936 134.231 133.624C134.114 133.311 133.941 133.068 133.711 132.895C133.484 132.722 133.204 132.635 132.872 132.635C132.528 132.635 132.241 132.724 132.011 132.903C131.781 133.082 131.607 133.33 131.491 133.645C131.374 133.96 131.316 134.321 131.316 134.727C131.316 135.136 131.374 135.501 131.491 135.822C131.61 136.141 131.785 136.392 132.015 136.577C132.248 136.759 132.533 136.849 132.872 136.849ZM137.771 138V131.455H139.313V138H137.771ZM138.546 130.526C138.302 130.526 138.092 130.445 137.916 130.283C137.739 130.118 137.651 129.92 137.651 129.69C137.651 129.457 137.739 129.26 137.916 129.098C138.092 128.933 138.302 128.851 138.546 128.851C138.793 128.851 139.004 128.933 139.177 129.098C139.353 129.26 139.441 129.457 139.441 129.69C139.441 129.92 139.353 130.118 139.177 130.283C139.004 130.445 138.793 130.526 138.546 130.526ZM143.955 138.128C143.316 138.128 142.762 137.987 142.293 137.706C141.824 137.425 141.46 137.031 141.202 136.526C140.946 136.02 140.818 135.429 140.818 134.753C140.818 134.077 140.946 133.484 141.202 132.976C141.46 132.467 141.824 132.072 142.293 131.791C142.762 131.51 143.316 131.369 143.955 131.369C144.594 131.369 145.148 131.51 145.617 131.791C146.085 132.072 146.448 132.467 146.703 132.976C146.962 133.484 147.091 134.077 147.091 134.753C147.091 135.429 146.962 136.02 146.703 136.526C146.448 137.031 146.085 137.425 145.617 137.706C145.148 137.987 144.594 138.128 143.955 138.128ZM143.963 136.892C144.31 136.892 144.6 136.797 144.833 136.607C145.066 136.413 145.239 136.155 145.352 135.831C145.469 135.507 145.527 135.146 145.527 134.749C145.527 134.348 145.469 133.986 145.352 133.662C145.239 133.335 145.066 133.075 144.833 132.882C144.6 132.689 144.31 132.592 143.963 132.592C143.608 132.592 143.313 132.689 143.077 132.882C142.844 133.075 142.669 133.335 142.553 133.662C142.439 133.986 142.382 134.348 142.382 134.749C142.382 135.146 142.439 135.507 142.553 135.831C142.669 136.155 142.844 136.413 143.077 136.607C143.313 136.797 143.608 136.892 143.963 136.892Z" fill="#FAFAFA"/>
<g clip-path="url(#clip4_2550_12085)">
<rect width="960" height="68" transform="translate(240)" fill="#1D1D1D"/>
<rect x="1148" y="16" width="36" height="36" rx="10" fill="#C3AFFF"/>
<path d="M1163.4 39H1161.1L1164.61 28.8182H1167.39L1170.9 39H1168.59L1166.04 31.1449H1165.96L1163.4 39ZM1163.26 34.9979H1168.71V36.6783H1163.26V34.9979Z" fill="#7848FF"/>
<path d="M292.548 101.741C292.482 101.012 292.187 100.446 291.663 100.041C291.146 99.6302 290.407 99.4247 289.446 99.4247C288.81 99.4247 288.279 99.5076 287.855 99.6733C287.431 99.839 287.113 100.068 286.901 100.359C286.688 100.644 286.579 100.973 286.572 101.344C286.559 101.649 286.619 101.917 286.751 102.149C286.891 102.381 287.089 102.587 287.348 102.766C287.613 102.938 287.931 103.09 288.303 103.223C288.674 103.356 289.091 103.472 289.555 103.571L291.305 103.969C292.313 104.188 293.201 104.479 293.97 104.844C294.746 105.208 295.395 105.643 295.919 106.146C296.449 106.65 296.85 107.23 297.122 107.886C297.394 108.543 297.533 109.278 297.54 110.094C297.533 111.38 297.208 112.483 296.565 113.405C295.922 114.326 294.998 115.032 293.791 115.523C292.591 116.013 291.143 116.259 289.446 116.259C287.742 116.259 286.258 116.003 284.991 115.493C283.725 114.982 282.741 114.207 282.038 113.166C281.336 112.125 280.974 110.81 280.955 109.219H285.668C285.707 109.875 285.883 110.422 286.195 110.859C286.506 111.297 286.934 111.628 287.477 111.854C288.027 112.079 288.664 112.192 289.386 112.192C290.049 112.192 290.613 112.102 291.077 111.923C291.547 111.744 291.909 111.496 292.161 111.178C292.412 110.859 292.542 110.495 292.548 110.084C292.542 109.699 292.422 109.371 292.19 109.099C291.958 108.821 291.6 108.582 291.116 108.384C290.639 108.178 290.029 107.989 289.287 107.817L287.159 107.32C285.396 106.915 284.007 106.262 282.993 105.361C281.979 104.453 281.475 103.226 281.482 101.682C281.475 100.422 281.813 99.3187 282.496 98.3707C283.179 97.4228 284.123 96.6837 285.33 96.1534C286.536 95.6231 287.911 95.358 289.456 95.358C291.034 95.358 292.402 95.6264 293.562 96.1634C294.729 96.6937 295.634 97.4394 296.277 98.4006C296.92 99.3617 297.248 100.475 297.261 101.741H292.548ZM308.646 100.727V104.307H299.011V100.727H308.646ZM301.03 97.0682H305.892V111.197C305.892 111.496 305.938 111.738 306.031 111.923C306.131 112.102 306.273 112.232 306.459 112.311C306.644 112.384 306.866 112.42 307.125 112.42C307.311 112.42 307.506 112.404 307.712 112.371C307.924 112.331 308.083 112.298 308.189 112.271L308.925 115.781C308.693 115.848 308.365 115.93 307.94 116.03C307.523 116.129 307.022 116.192 306.439 116.219C305.299 116.272 304.321 116.139 303.506 115.821C302.697 115.496 302.077 114.992 301.646 114.31C301.222 113.627 301.017 112.768 301.03 111.734V97.0682ZM320.981 109.408V100.727H325.833V116H321.2V113.156H321.04C320.702 114.091 320.126 114.833 319.31 115.384C318.502 115.927 317.524 116.199 316.377 116.199C315.336 116.199 314.422 115.96 313.633 115.483C312.844 115.006 312.231 114.339 311.793 113.484C311.356 112.623 311.134 111.615 311.127 110.462V100.727H315.989V109.507C315.996 110.336 316.215 110.989 316.646 111.466C317.076 111.943 317.663 112.182 318.406 112.182C318.889 112.182 319.324 112.076 319.708 111.864C320.099 111.645 320.407 111.33 320.633 110.919C320.865 110.501 320.981 109.998 320.981 109.408ZM334.506 116.219C333.379 116.219 332.355 115.927 331.434 115.344C330.512 114.76 329.776 113.885 329.226 112.719C328.676 111.552 328.401 110.104 328.401 108.374C328.401 106.577 328.686 105.099 329.256 103.939C329.826 102.779 330.572 101.92 331.493 101.364C332.421 100.807 333.419 100.528 334.486 100.528C335.288 100.528 335.974 100.668 336.544 100.946C337.114 101.218 337.585 101.569 337.956 102C338.328 102.431 338.609 102.878 338.801 103.342H338.901V95.6364H343.763V116H338.951V113.524H338.801C338.596 113.995 338.304 114.436 337.926 114.847C337.549 115.258 337.075 115.589 336.505 115.841C335.941 116.093 335.275 116.219 334.506 116.219ZM336.196 112.43C336.786 112.43 337.29 112.265 337.708 111.933C338.125 111.595 338.447 111.121 338.672 110.511C338.898 109.902 339.01 109.186 339.01 108.364C339.01 107.528 338.898 106.809 338.672 106.206C338.453 105.603 338.132 105.139 337.708 104.814C337.29 104.489 336.786 104.327 336.196 104.327C335.593 104.327 335.083 104.492 334.665 104.824C334.248 105.155 333.929 105.623 333.711 106.226C333.498 106.829 333.392 107.542 333.392 108.364C333.392 109.186 333.502 109.902 333.721 110.511C333.939 111.121 334.254 111.595 334.665 111.933C335.083 112.265 335.593 112.43 336.196 112.43ZM346.838 116V100.727H351.7V116H346.838ZM349.274 98.9474C348.591 98.9474 348.005 98.7221 347.514 98.2713C347.024 97.8139 346.778 97.2637 346.778 96.6207C346.778 95.9844 347.024 95.4408 347.514 94.9901C348.005 94.5327 348.591 94.304 349.274 94.304C349.964 94.304 350.55 94.5327 351.034 94.9901C351.525 95.4408 351.77 95.9844 351.77 96.6207C351.77 97.2637 351.525 97.8139 351.034 98.2713C350.55 98.7221 349.964 98.9474 349.274 98.9474ZM361.924 116.288C360.32 116.288 358.941 115.96 357.788 115.304C356.641 114.641 355.756 113.72 355.133 112.54C354.517 111.353 354.208 109.978 354.208 108.413C354.208 106.842 354.517 105.467 355.133 104.287C355.756 103.1 356.641 102.179 357.788 101.523C358.941 100.86 360.32 100.528 361.924 100.528C363.529 100.528 364.904 100.86 366.051 101.523C367.204 102.179 368.089 103.1 368.706 104.287C369.329 105.467 369.64 106.842 369.64 108.413C369.64 109.978 369.329 111.353 368.706 112.54C368.089 113.72 367.204 114.641 366.051 115.304C364.904 115.96 363.529 116.288 361.924 116.288ZM361.954 112.619C362.538 112.619 363.031 112.44 363.436 112.082C363.84 111.724 364.148 111.227 364.36 110.591C364.579 109.955 364.689 109.219 364.689 108.384C364.689 107.535 364.579 106.793 364.36 106.156C364.148 105.52 363.84 105.023 363.436 104.665C363.031 104.307 362.538 104.128 361.954 104.128C361.351 104.128 360.841 104.307 360.423 104.665C360.012 105.023 359.697 105.52 359.478 106.156C359.266 106.793 359.16 107.535 359.16 108.384C359.16 109.219 359.266 109.955 359.478 110.591C359.697 111.227 360.012 111.724 360.423 112.082C360.841 112.44 361.351 112.619 361.954 112.619ZM385.465 105.391L381 105.51C380.954 105.192 380.828 104.91 380.623 104.665C380.417 104.413 380.149 104.217 379.817 104.078C379.492 103.932 379.114 103.859 378.684 103.859C378.12 103.859 377.64 103.972 377.242 104.197C376.851 104.423 376.658 104.728 376.665 105.112C376.658 105.411 376.778 105.669 377.023 105.888C377.275 106.107 377.722 106.282 378.365 106.415L381.309 106.972C382.833 107.263 383.967 107.747 384.709 108.423C385.458 109.099 385.836 109.994 385.843 111.108C385.836 112.155 385.525 113.067 384.908 113.842C384.298 114.618 383.463 115.221 382.402 115.652C381.342 116.076 380.129 116.288 378.763 116.288C376.582 116.288 374.862 115.841 373.603 114.946C372.35 114.045 371.634 112.838 371.455 111.327L376.257 111.207C376.364 111.764 376.639 112.188 377.083 112.48C377.527 112.772 378.094 112.918 378.783 112.918C379.406 112.918 379.913 112.802 380.304 112.57C380.695 112.338 380.894 112.029 380.901 111.645C380.894 111.3 380.742 111.025 380.444 110.82C380.145 110.607 379.678 110.442 379.042 110.322L376.377 109.815C374.846 109.537 373.705 109.023 372.956 108.274C372.207 107.518 371.836 106.557 371.843 105.391C371.836 104.37 372.108 103.498 372.658 102.776C373.208 102.046 373.99 101.49 375.005 101.105C376.019 100.721 377.215 100.528 378.594 100.528C380.662 100.528 382.293 100.963 383.486 101.831C384.679 102.693 385.339 103.879 385.465 105.391Z" fill="#FAFAFA"/>
<path d="M746.333 106.833C746.691 107.312 747.148 107.708 747.672 107.994C748.196 108.281 748.776 108.451 749.372 108.494C749.968 108.536 750.566 108.45 751.126 108.242C751.686 108.033 752.194 107.706 752.617 107.283L755.117 104.783C755.876 103.998 756.296 102.945 756.286 101.853C756.277 100.76 755.838 99.7151 755.066 98.9426C754.293 98.17 753.248 97.7318 752.156 97.7223C751.063 97.7128 750.011 98.1328 749.225 98.8918L747.792 100.317M749.667 105.167C749.309 104.688 748.852 104.292 748.328 104.006C747.803 103.72 747.224 103.549 746.628 103.507C746.032 103.464 745.434 103.55 744.874 103.759C744.314 103.967 743.806 104.294 743.383 104.717L740.883 107.217C740.124 108.003 739.704 109.055 739.714 110.148C739.723 111.24 740.161 112.285 740.934 113.058C741.707 113.83 742.752 114.268 743.844 114.278C744.937 114.287 745.989 113.867 746.775 113.108L748.2 111.683" stroke="#FAFAFA" stroke-width="1.5" stroke-linecap="round" stroke-linejoin="round"/>
<rect x="778" y="84" width="103" height="44" rx="10" fill="#2B2B2B"/>
<path d="M811.833 113.5V108.5M809.333 111H814.333M806 108.5H802.667C801.114 108.5 800.337 108.5 799.724 108.754C798.908 109.092 798.259 109.741 797.92 110.558C797.667 111.17 797.667 111.947 797.667 113.5M808.917 98.7423C810.138 99.2368 811 100.434 811 101.833C811 103.232 810.138 104.43 808.917 104.924M807.25 101.833C807.25 103.674 805.758 105.167 803.917 105.167C802.076 105.167 800.583 103.674 800.583 101.833C800.583 99.9924 802.076 98.5 803.917 98.5C805.758 98.5 807.25 99.9924 807.25 101.833Z" stroke="#FAFAFA" stroke-width="1.5" stroke-linecap="round" stroke-linejoin="round"/>
<path d="M826.849 100.818V111H825.004V100.818H826.849ZM830.766 106.526V111H828.967V103.364H830.687V104.661H830.776C830.952 104.234 831.232 103.894 831.616 103.642C832.004 103.39 832.483 103.264 833.053 103.264C833.58 103.264 834.039 103.377 834.43 103.602C834.825 103.828 835.13 104.154 835.345 104.582C835.564 105.009 835.672 105.528 835.668 106.138V111H833.869V106.416C833.869 105.906 833.736 105.506 833.471 105.218C833.209 104.93 832.846 104.786 832.382 104.786C832.067 104.786 831.787 104.855 831.542 104.994C831.3 105.13 831.109 105.327 830.97 105.586C830.834 105.844 830.766 106.158 830.766 106.526ZM844.245 103.364L841.526 111H839.537L836.818 103.364H838.737L840.492 109.036H840.571L842.331 103.364H844.245ZM845.691 111V103.364H847.49V111H845.691ZM846.596 102.28C846.311 102.28 846.065 102.185 845.86 101.996C845.654 101.804 845.552 101.574 845.552 101.305C845.552 101.034 845.654 100.803 845.86 100.614C846.065 100.422 846.311 100.326 846.596 100.326C846.884 100.326 847.129 100.422 847.331 100.614C847.537 100.803 847.64 101.034 847.64 101.305C847.64 101.574 847.537 101.804 847.331 101.996C847.129 102.185 846.884 102.28 846.596 102.28ZM853.354 103.364V104.756H848.964V103.364H853.354ZM850.048 101.534H851.848V108.703C851.848 108.945 851.884 109.131 851.957 109.26C852.034 109.386 852.133 109.472 852.256 109.518C852.378 109.565 852.514 109.588 852.663 109.588C852.776 109.588 852.879 109.58 852.972 109.563C853.068 109.547 853.141 109.532 853.19 109.518L853.494 110.925C853.397 110.959 853.26 110.995 853.081 111.035C852.905 111.075 852.69 111.098 852.435 111.104C851.984 111.118 851.578 111.05 851.217 110.901C850.855 110.748 850.569 110.513 850.356 110.195C850.148 109.876 850.045 109.479 850.048 109.001V101.534ZM858.358 111.149C857.593 111.149 856.931 110.99 856.374 110.672C855.821 110.35 855.395 109.896 855.097 109.31C854.798 108.72 854.649 108.025 854.649 107.227C854.649 106.441 854.798 105.752 855.097 105.158C855.398 104.562 855.819 104.098 856.36 103.766C856.9 103.432 857.535 103.264 858.264 103.264C858.734 103.264 859.178 103.34 859.596 103.493C860.017 103.642 860.388 103.874 860.71 104.189C861.035 104.504 861.29 104.905 861.475 105.392C861.661 105.876 861.754 106.453 861.754 107.122V107.674H855.494V106.461H860.029C860.025 106.116 859.951 105.81 859.805 105.541C859.659 105.269 859.455 105.056 859.193 104.9C858.935 104.744 858.633 104.666 858.289 104.666C857.921 104.666 857.597 104.756 857.319 104.935C857.041 105.11 856.824 105.342 856.668 105.631C856.515 105.916 856.437 106.229 856.434 106.57V107.629C856.434 108.073 856.515 108.455 856.678 108.773C856.84 109.088 857.067 109.33 857.359 109.499C857.651 109.664 857.992 109.747 858.383 109.747C858.645 109.747 858.882 109.711 859.094 109.638C859.306 109.562 859.49 109.451 859.646 109.305C859.802 109.159 859.919 108.978 859.999 108.763L861.679 108.952C861.573 109.396 861.371 109.784 861.073 110.115C860.778 110.443 860.4 110.698 859.939 110.881C859.478 111.06 858.951 111.149 858.358 111.149Z" fill="#FAFAFA"/>
<rect x="889" y="84" width="114" height="44" rx="10" fill="#2B2B2B"/>
<path d="M924.5 108.5V109.5C924.5 110.9 924.5 111.6 924.228 112.135C923.988 112.605 923.605 112.988 923.135 113.228C922.6 113.5 921.9 113.5 920.5 113.5H913.5C912.1 113.5 911.4 113.5 910.865 113.228C910.395 112.988 910.012 112.605 909.772 112.135C909.5 111.6 909.5 110.9 909.5 109.5V108.5M921.167 102.667L917 98.5M917 98.5L912.833 102.667M917 98.5V108.5" stroke="#FAFAFA" stroke-width="1.5" stroke-linecap="round" stroke-linejoin="round"/>
<path d="M942.423 100.818H944.267V107.47C944.267 108.199 944.095 108.841 943.75 109.394C943.409 109.948 942.928 110.38 942.308 110.692C941.688 111 940.964 111.154 940.136 111.154C939.304 111.154 938.578 111 937.958 110.692C937.338 110.38 936.858 109.948 936.516 109.394C936.175 108.841 936.004 108.199 936.004 107.47V100.818H937.849V107.316C937.849 107.74 937.942 108.118 938.127 108.45C938.316 108.781 938.581 109.041 938.923 109.23C939.264 109.416 939.668 109.509 940.136 109.509C940.603 109.509 941.007 109.416 941.349 109.23C941.693 109.041 941.959 108.781 942.144 108.45C942.33 108.118 942.423 107.74 942.423 107.316V100.818ZM946.392 113.864V103.364H948.162V104.626H948.267C948.359 104.441 948.49 104.244 948.659 104.035C948.828 103.823 949.057 103.642 949.345 103.493C949.634 103.34 950.002 103.264 950.449 103.264C951.039 103.264 951.571 103.415 952.045 103.717C952.522 104.015 952.9 104.457 953.179 105.044C953.46 105.627 953.601 106.343 953.601 107.192C953.601 108.03 953.464 108.743 953.188 109.33C952.913 109.916 952.539 110.364 952.065 110.672C951.591 110.98 951.054 111.134 950.454 111.134C950.017 111.134 949.654 111.061 949.365 110.915C949.077 110.77 948.845 110.594 948.669 110.388C948.497 110.18 948.363 109.982 948.267 109.797H948.192V113.864H946.392ZM948.157 107.182C948.157 107.676 948.227 108.108 948.366 108.479C948.509 108.851 948.712 109.141 948.978 109.349C949.246 109.555 949.571 109.658 949.952 109.658C950.35 109.658 950.683 109.552 950.951 109.339C951.22 109.124 951.422 108.831 951.558 108.46C951.697 108.085 951.767 107.659 951.767 107.182C951.767 106.708 951.699 106.287 951.563 105.919C951.427 105.551 951.225 105.263 950.956 105.054C950.688 104.845 950.353 104.741 949.952 104.741C949.567 104.741 949.241 104.842 948.973 105.044C948.704 105.246 948.5 105.53 948.361 105.894C948.225 106.259 948.157 106.688 948.157 107.182ZM957.142 100.818V111H955.342V100.818H957.142ZM962.524 111.149C961.778 111.149 961.132 110.985 960.585 110.657C960.038 110.329 959.614 109.87 959.312 109.28C959.014 108.69 958.865 108 958.865 107.212C958.865 106.423 959.014 105.732 959.312 105.138C959.614 104.545 960.038 104.085 960.585 103.756C961.132 103.428 961.778 103.264 962.524 103.264C963.269 103.264 963.916 103.428 964.463 103.756C965.009 104.085 965.432 104.545 965.73 105.138C966.032 105.732 966.183 106.423 966.183 107.212C966.183 108 966.032 108.69 965.73 109.28C965.432 109.87 965.009 110.329 964.463 110.657C963.916 110.985 963.269 111.149 962.524 111.149ZM962.534 109.707C962.938 109.707 963.276 109.596 963.548 109.374C963.82 109.149 964.022 108.847 964.154 108.469C964.29 108.092 964.358 107.671 964.358 107.207C964.358 106.739 964.29 106.317 964.154 105.939C964.022 105.558 963.82 105.254 963.548 105.029C963.276 104.804 962.938 104.691 962.534 104.691C962.119 104.691 961.775 104.804 961.5 105.029C961.228 105.254 961.024 105.558 960.888 105.939C960.755 106.317 960.689 106.739 960.689 107.207C960.689 107.671 960.755 108.092 960.888 108.469C961.024 108.847 961.228 109.149 961.5 109.374C961.775 109.596 962.119 109.707 962.534 109.707ZM970.108 111.154C969.624 111.154 969.188 111.068 968.8 110.896C968.416 110.72 968.111 110.461 967.885 110.12C967.663 109.779 967.552 109.358 967.552 108.857C967.552 108.426 967.632 108.07 967.791 107.788C967.95 107.507 968.167 107.281 968.442 107.112C968.717 106.943 969.027 106.816 969.372 106.729C969.72 106.64 970.08 106.575 970.451 106.536C970.898 106.489 971.261 106.448 971.54 106.411C971.818 106.371 972.02 106.312 972.146 106.232C972.275 106.149 972.34 106.022 972.34 105.849V105.82C972.34 105.445 972.229 105.155 972.007 104.95C971.785 104.744 971.465 104.641 971.047 104.641C970.607 104.641 970.257 104.737 969.998 104.93C969.743 105.122 969.571 105.349 969.481 105.611L967.801 105.372C967.933 104.908 968.152 104.52 968.457 104.209C968.762 103.894 969.135 103.659 969.576 103.503C970.017 103.344 970.504 103.264 971.037 103.264C971.405 103.264 971.772 103.307 972.136 103.393C972.501 103.48 972.834 103.622 973.135 103.821C973.437 104.017 973.679 104.283 973.861 104.621C974.047 104.96 974.14 105.382 974.14 105.889V111H972.41V109.951H972.35C972.241 110.163 972.086 110.362 971.888 110.548C971.692 110.73 971.445 110.877 971.147 110.99C970.852 111.099 970.505 111.154 970.108 111.154ZM970.575 109.832C970.936 109.832 971.25 109.76 971.515 109.618C971.78 109.472 971.984 109.28 972.126 109.041C972.272 108.803 972.345 108.542 972.345 108.261V107.361C972.289 107.407 972.192 107.45 972.057 107.49C971.924 107.53 971.775 107.565 971.609 107.594C971.443 107.624 971.279 107.651 971.117 107.674C970.955 107.697 970.814 107.717 970.694 107.734C970.426 107.77 970.186 107.83 969.973 107.913C969.761 107.996 969.594 108.112 969.471 108.261C969.349 108.406 969.287 108.595 969.287 108.827C969.287 109.159 969.408 109.409 969.65 109.578C969.892 109.747 970.201 109.832 970.575 109.832ZM978.983 111.134C978.383 111.134 977.846 110.98 977.372 110.672C976.898 110.364 976.524 109.916 976.249 109.33C975.974 108.743 975.836 108.03 975.836 107.192C975.836 106.343 975.975 105.627 976.254 105.044C976.535 104.457 976.915 104.015 977.392 103.717C977.869 103.415 978.401 103.264 978.988 103.264C979.436 103.264 979.803 103.34 980.092 103.493C980.38 103.642 980.609 103.823 980.778 104.035C980.947 104.244 981.078 104.441 981.171 104.626H981.245V100.818H983.05V111H981.28V109.797H981.171C981.078 109.982 980.944 110.18 980.768 110.388C980.592 110.594 980.36 110.77 980.072 110.915C979.784 111.061 979.421 111.134 978.983 111.134ZM979.485 109.658C979.866 109.658 980.191 109.555 980.46 109.349C980.728 109.141 980.932 108.851 981.071 108.479C981.21 108.108 981.28 107.676 981.28 107.182C981.28 106.688 981.21 106.259 981.071 105.894C980.935 105.53 980.733 105.246 980.465 105.044C980.2 104.842 979.873 104.741 979.485 104.741C979.084 104.741 978.749 104.845 978.481 105.054C978.213 105.263 978.01 105.551 977.874 105.919C977.739 106.287 977.671 106.708 977.671 107.182C977.671 107.659 977.739 108.085 977.874 108.46C978.014 108.831 978.218 109.124 978.486 109.339C978.758 109.552 979.091 109.658 979.485 109.658Z" fill="#FAFAFA"/>
<rect x="1011" y="84" width="149" height="44" rx="10" fill="#9671FF"/>
<g clip-path="url(#clip5_2550_12085)">
<path d="M1047.33 103.442C1047.33 102.937 1047.33 102.684 1047.23 102.568C1047.15 102.466 1047.02 102.412 1046.88 102.423C1046.73 102.435 1046.55 102.613 1046.2 102.97L1043.17 105.999L1046.2 109.027C1046.55 109.384 1046.73 109.563 1046.88 109.575C1047.02 109.585 1047.15 109.532 1047.23 109.43C1047.33 109.313 1047.33 109.061 1047.33 108.556V103.442Z" stroke="#FAFAFA" stroke-width="1.5" stroke-linecap="round" stroke-linejoin="round"/>
<path d="M1030.67 104.166C1030.67 102.765 1030.67 102.065 1030.94 101.531C1031.18 101.06 1031.56 100.678 1032.03 100.438C1032.57 100.166 1033.27 100.166 1034.67 100.166H1039.17C1040.57 100.166 1041.27 100.166 1041.8 100.438C1042.27 100.678 1042.65 101.06 1042.89 101.531C1043.17 102.065 1043.17 102.765 1043.17 104.166V107.832C1043.17 109.232 1043.17 109.932 1042.89 110.467C1042.65 110.938 1042.27 111.32 1041.8 111.56C1041.27 111.832 1040.57 111.832 1039.17 111.832H1034.67C1033.27 111.832 1032.57 111.832 1032.03 111.56C1031.56 111.32 1031.18 110.938 1030.94 110.467C1030.67 109.932 1030.67 109.232 1030.67 107.832V104.166Z" stroke="#FAFAFA" stroke-width="1.5" stroke-linecap="round" stroke-linejoin="round"/>
</g>
<path d="M1064.83 104.07C1064.74 103.801 1064.63 103.561 1064.48 103.349C1064.34 103.133 1064.17 102.949 1063.97 102.797C1063.77 102.644 1063.54 102.53 1063.28 102.454C1063.02 102.374 1062.74 102.335 1062.43 102.335C1061.89 102.335 1061.4 102.472 1060.97 102.747C1060.54 103.022 1060.21 103.427 1059.96 103.96C1059.72 104.491 1059.6 105.137 1059.6 105.899C1059.6 106.668 1059.72 107.319 1059.96 107.853C1060.21 108.387 1060.54 108.793 1060.97 109.071C1061.4 109.346 1061.9 109.484 1062.47 109.484C1062.99 109.484 1063.44 109.384 1063.82 109.185C1064.2 108.987 1064.49 108.705 1064.7 108.34C1064.9 107.972 1065 107.541 1065 107.048L1065.42 107.112H1062.66V105.67H1066.79V106.893C1066.79 107.765 1066.6 108.519 1066.23 109.156C1065.86 109.792 1065.35 110.282 1064.7 110.627C1064.05 110.969 1063.31 111.139 1062.46 111.139C1061.53 111.139 1060.7 110.929 1059.99 110.508C1059.29 110.084 1058.74 109.482 1058.34 108.703C1057.94 107.921 1057.75 106.993 1057.75 105.919C1057.75 105.097 1057.86 104.363 1058.09 103.717C1058.33 103.07 1058.66 102.522 1059.08 102.071C1059.5 101.617 1059.99 101.272 1060.56 101.037C1061.13 100.798 1061.74 100.679 1062.41 100.679C1062.97 100.679 1063.5 100.762 1063.99 100.928C1064.47 101.09 1064.9 101.322 1065.28 101.624C1065.66 101.925 1065.98 102.283 1066.22 102.697C1066.47 103.112 1066.63 103.569 1066.7 104.07H1064.83ZM1072.02 111.149C1071.28 111.149 1070.63 110.985 1070.09 110.657C1069.54 110.329 1069.11 109.87 1068.81 109.28C1068.51 108.69 1068.36 108 1068.36 107.212C1068.36 106.423 1068.51 105.732 1068.81 105.138C1069.11 104.545 1069.54 104.085 1070.09 103.756C1070.63 103.428 1071.28 103.264 1072.02 103.264C1072.77 103.264 1073.42 103.428 1073.96 103.756C1074.51 104.085 1074.93 104.545 1075.23 105.138C1075.53 105.732 1075.68 106.423 1075.68 107.212C1075.68 108 1075.53 108.69 1075.23 109.28C1074.93 109.87 1074.51 110.329 1073.96 110.657C1073.42 110.985 1072.77 111.149 1072.02 111.149ZM1072.03 109.707C1072.44 109.707 1072.78 109.596 1073.05 109.374C1073.32 109.149 1073.52 108.847 1073.65 108.469C1073.79 108.092 1073.86 107.671 1073.86 107.207C1073.86 106.739 1073.79 106.317 1073.65 105.939C1073.52 105.558 1073.32 105.254 1073.05 105.029C1072.78 104.804 1072.44 104.691 1072.03 104.691C1071.62 104.691 1071.27 104.804 1071 105.029C1070.73 105.254 1070.52 105.558 1070.39 105.939C1070.26 106.317 1070.19 106.739 1070.19 107.207C1070.19 107.671 1070.26 108.092 1070.39 108.469C1070.52 108.847 1070.73 109.149 1071 109.374C1071.27 109.596 1071.62 109.707 1072.03 109.707ZM1084.9 103.364V104.756H1080.51V103.364H1084.9ZM1081.59 101.534H1083.39V108.703C1083.39 108.945 1083.43 109.131 1083.5 109.26C1083.58 109.386 1083.68 109.472 1083.8 109.518C1083.92 109.565 1084.06 109.588 1084.21 109.588C1084.32 109.588 1084.42 109.58 1084.51 109.563C1084.61 109.547 1084.68 109.532 1084.73 109.518L1085.04 110.925C1084.94 110.959 1084.8 110.995 1084.62 111.035C1084.45 111.075 1084.23 111.098 1083.98 111.104C1083.53 111.118 1083.12 111.05 1082.76 110.901C1082.4 110.748 1082.11 110.513 1081.9 110.195C1081.69 109.876 1081.59 109.479 1081.59 109.001V101.534ZM1089.85 111.149C1089.1 111.149 1088.46 110.985 1087.91 110.657C1087.36 110.329 1086.94 109.87 1086.64 109.28C1086.34 108.69 1086.19 108 1086.19 107.212C1086.19 106.423 1086.34 105.732 1086.64 105.138C1086.94 104.545 1087.36 104.085 1087.91 103.756C1088.46 103.428 1089.1 103.264 1089.85 103.264C1090.6 103.264 1091.24 103.428 1091.79 103.756C1092.34 104.085 1092.76 104.545 1093.06 105.138C1093.36 105.732 1093.51 106.423 1093.51 107.212C1093.51 108 1093.36 108.69 1093.06 109.28C1092.76 109.87 1092.34 110.329 1091.79 110.657C1091.24 110.985 1090.6 111.149 1089.85 111.149ZM1089.86 109.707C1090.26 109.707 1090.6 109.596 1090.87 109.374C1091.15 109.149 1091.35 108.847 1091.48 108.469C1091.62 108.092 1091.69 107.671 1091.69 107.207C1091.69 106.739 1091.62 106.317 1091.48 105.939C1091.35 105.558 1091.15 105.254 1090.87 105.029C1090.6 104.804 1090.26 104.691 1089.86 104.691C1089.45 104.691 1089.1 104.804 1088.83 105.029C1088.55 105.254 1088.35 105.558 1088.21 105.939C1088.08 106.317 1088.02 106.739 1088.02 107.207C1088.02 107.671 1088.08 108.092 1088.21 108.469C1088.35 108.847 1088.55 109.149 1088.83 109.374C1089.1 109.596 1089.45 109.707 1089.86 109.707ZM1104.95 105.382L1103.3 105.561C1103.26 105.395 1103.18 105.24 1103.06 105.094C1102.95 104.948 1102.8 104.83 1102.6 104.741C1102.41 104.651 1102.18 104.607 1101.9 104.607C1101.52 104.607 1101.21 104.688 1100.95 104.85C1100.7 105.013 1100.58 105.223 1100.58 105.482C1100.58 105.704 1100.66 105.884 1100.82 106.023C1100.99 106.163 1101.27 106.277 1101.66 106.366L1102.96 106.645C1103.68 106.801 1104.22 107.048 1104.57 107.386C1104.93 107.724 1105.11 108.166 1105.11 108.713C1105.11 109.194 1104.97 109.618 1104.69 109.986C1104.41 110.35 1104.03 110.635 1103.54 110.841C1103.05 111.046 1102.48 111.149 1101.85 111.149C1100.91 111.149 1100.16 110.954 1099.59 110.562C1099.02 110.168 1098.68 109.62 1098.57 108.917L1100.33 108.748C1100.41 109.093 1100.58 109.353 1100.83 109.528C1101.09 109.704 1101.43 109.792 1101.84 109.792C1102.27 109.792 1102.61 109.704 1102.87 109.528C1103.13 109.353 1103.26 109.136 1103.26 108.877C1103.26 108.658 1103.18 108.478 1103.01 108.335C1102.85 108.193 1102.59 108.083 1102.24 108.007L1100.93 107.734C1100.2 107.581 1099.66 107.324 1099.31 106.963C1098.96 106.598 1098.78 106.138 1098.79 105.581C1098.78 105.11 1098.91 104.703 1099.17 104.358C1099.43 104.01 1099.79 103.741 1100.26 103.553C1100.72 103.36 1101.26 103.264 1101.87 103.264C1102.77 103.264 1103.47 103.455 1103.99 103.836C1104.5 104.217 1104.82 104.732 1104.95 105.382ZM1110.61 103.364V104.756H1106.22V103.364H1110.61ZM1107.3 101.534H1109.1V108.703C1109.1 108.945 1109.14 109.131 1109.21 109.26C1109.29 109.386 1109.39 109.472 1109.51 109.518C1109.63 109.565 1109.77 109.588 1109.92 109.588C1110.03 109.588 1110.13 109.58 1110.22 109.563C1110.32 109.547 1110.39 109.532 1110.44 109.518L1110.75 110.925C1110.65 110.959 1110.51 110.995 1110.33 111.035C1110.16 111.075 1109.94 111.098 1109.69 111.104C1109.24 111.118 1108.83 111.05 1108.47 110.901C1108.11 110.748 1107.82 110.513 1107.61 110.195C1107.4 109.876 1107.3 109.479 1107.3 109.001V101.534ZM1117.18 107.788V103.364H1118.98V111H1117.23V109.643H1117.15C1116.98 110.07 1116.7 110.42 1116.3 110.692C1115.91 110.964 1115.43 111.099 1114.86 111.099C1114.36 111.099 1113.91 110.988 1113.53 110.766C1113.15 110.541 1112.85 110.214 1112.63 109.787C1112.42 109.356 1112.31 108.836 1112.31 108.226V103.364H1114.11V107.947C1114.11 108.431 1114.24 108.816 1114.51 109.101C1114.77 109.386 1115.12 109.528 1115.55 109.528C1115.82 109.528 1116.08 109.464 1116.32 109.335C1116.57 109.205 1116.78 109.013 1116.94 108.758C1117.1 108.499 1117.18 108.176 1117.18 107.788ZM1123.86 111.134C1123.26 111.134 1122.73 110.98 1122.25 110.672C1121.78 110.364 1121.4 109.916 1121.13 109.33C1120.85 108.743 1120.72 108.03 1120.72 107.192C1120.72 106.343 1120.86 105.627 1121.13 105.044C1121.42 104.457 1121.8 104.015 1122.27 103.717C1122.75 103.415 1123.28 103.264 1123.87 103.264C1124.32 103.264 1124.68 103.34 1124.97 103.493C1125.26 103.642 1125.49 103.823 1125.66 104.035C1125.83 104.244 1125.96 104.441 1126.05 104.626H1126.13V100.818H1127.93V111H1126.16V109.797H1126.05C1125.96 109.982 1125.82 110.18 1125.65 110.388C1125.47 110.594 1125.24 110.77 1124.95 110.915C1124.66 111.061 1124.3 111.134 1123.86 111.134ZM1124.37 109.658C1124.75 109.658 1125.07 109.555 1125.34 109.349C1125.61 109.141 1125.81 108.851 1125.95 108.479C1126.09 108.108 1126.16 107.676 1126.16 107.182C1126.16 106.688 1126.09 106.259 1125.95 105.894C1125.82 105.53 1125.61 105.246 1125.34 105.044C1125.08 104.842 1124.75 104.741 1124.37 104.741C1123.96 104.741 1123.63 104.845 1123.36 105.054C1123.09 105.263 1122.89 105.551 1122.75 105.919C1122.62 106.287 1122.55 106.708 1122.55 107.182C1122.55 107.659 1122.62 108.085 1122.75 108.46C1122.89 108.831 1123.1 109.124 1123.37 109.339C1123.64 109.552 1123.97 109.658 1124.37 109.658ZM1130.05 111V103.364H1131.85V111H1130.05ZM1130.95 102.28C1130.67 102.28 1130.42 102.185 1130.22 101.996C1130.01 101.804 1129.91 101.574 1129.91 101.305C1129.91 101.034 1130.01 100.803 1130.22 100.614C1130.42 100.422 1130.67 100.326 1130.95 100.326C1131.24 100.326 1131.49 100.422 1131.69 100.614C1131.89 100.803 1132 101.034 1132 101.305C1132 101.574 1131.89 101.804 1131.69 101.996C1131.49 102.185 1131.24 102.28 1130.95 102.28ZM1137.23 111.149C1136.48 111.149 1135.84 110.985 1135.29 110.657C1134.74 110.329 1134.32 109.87 1134.02 109.28C1133.72 108.69 1133.57 108 1133.57 107.212C1133.57 106.423 1133.72 105.732 1134.02 105.138C1134.32 104.545 1134.74 104.085 1135.29 103.756C1135.84 103.428 1136.48 103.264 1137.23 103.264C1137.97 103.264 1138.62 103.428 1139.17 103.756C1139.71 104.085 1140.14 104.545 1140.44 105.138C1140.74 105.732 1140.89 106.423 1140.89 107.212C1140.89 108 1140.74 108.69 1140.44 109.28C1140.14 109.87 1139.71 110.329 1139.17 110.657C1138.62 110.985 1137.97 111.149 1137.23 111.149ZM1137.24 109.707C1137.64 109.707 1137.98 109.596 1138.25 109.374C1138.53 109.149 1138.73 108.847 1138.86 108.469C1139 108.092 1139.06 107.671 1139.06 107.207C1139.06 106.739 1139 106.317 1138.86 105.939C1138.73 105.558 1138.53 105.254 1138.25 105.029C1137.98 104.804 1137.64 104.691 1137.24 104.691C1136.82 104.691 1136.48 104.804 1136.2 105.029C1135.93 105.254 1135.73 105.558 1135.59 105.939C1135.46 106.317 1135.39 106.739 1135.39 107.207C1135.39 107.671 1135.46 108.092 1135.59 108.469C1135.73 108.847 1135.93 109.149 1136.2 109.374C1136.48 109.596 1136.82 109.707 1137.24 109.707Z" fill="#FAFAFA"/>
<g clip-path="url(#clip6_2550_12085)">
<g clip-path="url(#clip7_2550_12085)">
<rect x="280" y="156" width="220" height="36" rx="10" fill="#222222"/>
<path d="M310 180L307.1 177.1M308.667 173.333C308.667 176.279 306.279 178.667 303.333 178.667C300.388 178.667 298 176.279 298 173.333C298 170.388 300.388 168 303.333 168C306.279 168 308.667 170.388 308.667 173.333Z" stroke="#888888" stroke-width="1.5" stroke-linecap="round" stroke-linejoin="round"/>
<path d="M321.233 179V168.818H324.673C325.469 168.818 326.122 168.954 326.632 169.226C327.143 169.494 327.52 169.864 327.766 170.335C328.011 170.805 328.134 171.34 328.134 171.94C328.134 172.54 328.011 173.072 327.766 173.536C327.52 174 327.144 174.365 326.637 174.63C326.13 174.892 325.482 175.023 324.693 175.023H321.909V173.909H324.653C325.197 173.909 325.634 173.83 325.966 173.67C326.301 173.511 326.543 173.286 326.692 172.994C326.844 172.699 326.92 172.348 326.92 171.94C326.92 171.533 326.844 171.176 326.692 170.871C326.539 170.567 326.296 170.331 325.961 170.165C325.626 169.996 325.184 169.912 324.634 169.912H322.466V179H321.233ZM326.026 174.426L328.531 179H327.099L324.634 174.426H326.026ZM333.349 179.159C332.613 179.159 331.978 178.997 331.444 178.672C330.914 178.344 330.505 177.886 330.217 177.3C329.931 176.71 329.789 176.024 329.789 175.241C329.789 174.459 329.931 173.77 330.217 173.173C330.505 172.573 330.906 172.106 331.42 171.771C331.937 171.433 332.54 171.264 333.229 171.264C333.627 171.264 334.02 171.33 334.408 171.463C334.795 171.596 335.148 171.811 335.467 172.109C335.785 172.404 336.038 172.795 336.227 173.283C336.416 173.77 336.511 174.37 336.511 175.082V175.58H330.624V174.565H335.317C335.317 174.134 335.231 173.75 335.059 173.412C334.89 173.074 334.648 172.807 334.333 172.612C334.021 172.416 333.654 172.318 333.229 172.318C332.762 172.318 332.358 172.434 332.016 172.666C331.678 172.895 331.418 173.193 331.236 173.561C331.053 173.929 330.962 174.323 330.962 174.744V175.42C330.962 175.997 331.062 176.486 331.261 176.887C331.463 177.285 331.743 177.588 332.101 177.797C332.459 178.002 332.875 178.105 333.349 178.105C333.657 178.105 333.935 178.062 334.184 177.976C334.436 177.886 334.653 177.754 334.835 177.578C335.017 177.399 335.158 177.177 335.258 176.912L336.391 177.23C336.272 177.615 336.071 177.953 335.79 178.244C335.508 178.533 335.16 178.758 334.746 178.92C334.331 179.08 333.866 179.159 333.349 179.159ZM341.598 179.159C340.882 179.159 340.265 178.99 339.748 178.652C339.231 178.314 338.833 177.848 338.555 177.255C338.277 176.662 338.137 175.984 338.137 175.222C338.137 174.446 338.28 173.762 338.565 173.168C338.853 172.572 339.254 172.106 339.768 171.771C340.285 171.433 340.888 171.264 341.578 171.264C342.115 171.264 342.599 171.364 343.029 171.562C343.46 171.761 343.813 172.04 344.088 172.398C344.363 172.756 344.534 173.173 344.6 173.651H343.427C343.338 173.303 343.139 172.994 342.831 172.726C342.526 172.454 342.115 172.318 341.598 172.318C341.14 172.318 340.739 172.437 340.394 172.676C340.053 172.911 339.786 173.245 339.594 173.675C339.405 174.103 339.311 174.605 339.311 175.182C339.311 175.772 339.403 176.286 339.589 176.723C339.778 177.161 340.043 177.5 340.385 177.742C340.729 177.984 341.134 178.105 341.598 178.105C341.903 178.105 342.179 178.052 342.428 177.946C342.676 177.84 342.887 177.688 343.059 177.489C343.232 177.29 343.354 177.051 343.427 176.773H344.6C344.534 177.223 344.37 177.629 344.108 177.991C343.85 178.349 343.507 178.634 343.079 178.846C342.655 179.055 342.161 179.159 341.598 179.159ZM349.618 179.159C348.929 179.159 348.324 178.995 347.803 178.667C347.286 178.339 346.882 177.88 346.59 177.29C346.302 176.7 346.158 176.01 346.158 175.222C346.158 174.426 346.302 173.732 346.59 173.138C346.882 172.545 347.286 172.085 347.803 171.756C348.324 171.428 348.929 171.264 349.618 171.264C350.307 171.264 350.911 171.428 351.428 171.756C351.948 172.085 352.352 172.545 352.641 173.138C352.932 173.732 353.078 174.426 353.078 175.222C353.078 176.01 352.932 176.7 352.641 177.29C352.352 177.88 351.948 178.339 351.428 178.667C350.911 178.995 350.307 179.159 349.618 179.159ZM349.618 178.105C350.142 178.105 350.572 177.971 350.911 177.702C351.249 177.434 351.499 177.081 351.661 176.643C351.824 176.206 351.905 175.732 351.905 175.222C351.905 174.711 351.824 174.236 351.661 173.795C351.499 173.354 351.249 172.998 350.911 172.726C350.572 172.454 350.142 172.318 349.618 172.318C349.094 172.318 348.663 172.454 348.325 172.726C347.987 172.998 347.737 173.354 347.575 173.795C347.412 174.236 347.331 174.711 347.331 175.222C347.331 175.732 347.412 176.206 347.575 176.643C347.737 177.081 347.987 177.434 348.325 177.702C348.663 177.971 349.094 178.105 349.618 178.105ZM355.069 179V171.364H356.203V172.517H356.282C356.421 172.139 356.673 171.833 357.038 171.597C357.403 171.362 357.813 171.244 358.271 171.244C358.357 171.244 358.465 171.246 358.594 171.249C358.723 171.253 358.821 171.258 358.887 171.264V172.457C358.848 172.447 358.756 172.433 358.614 172.413C358.475 172.389 358.327 172.378 358.171 172.378C357.8 172.378 357.469 172.456 357.177 172.612C356.889 172.764 356.66 172.976 356.491 173.248C356.325 173.516 356.242 173.823 356.242 174.168V179H355.069ZM363.129 179.159C362.493 179.159 361.931 178.998 361.444 178.677C360.957 178.352 360.576 177.895 360.3 177.305C360.025 176.711 359.888 176.01 359.888 175.202C359.888 174.4 360.025 173.704 360.3 173.114C360.576 172.524 360.958 172.068 361.449 171.746C361.939 171.425 362.506 171.264 363.149 171.264C363.646 171.264 364.039 171.347 364.327 171.513C364.619 171.675 364.841 171.861 364.994 172.07C365.149 172.275 365.27 172.444 365.357 172.577H365.456V168.818H366.629V179H365.496V177.827H365.357C365.27 177.966 365.148 178.142 364.989 178.354C364.83 178.562 364.603 178.75 364.308 178.915C364.013 179.078 363.62 179.159 363.129 179.159ZM363.288 178.105C363.759 178.105 364.157 177.982 364.482 177.737C364.806 177.489 365.053 177.146 365.222 176.708C365.391 176.267 365.476 175.759 365.476 175.182C365.476 174.612 365.393 174.113 365.227 173.685C365.062 173.254 364.816 172.92 364.491 172.681C364.167 172.439 363.766 172.318 363.288 172.318C362.791 172.318 362.377 172.446 362.045 172.701C361.717 172.953 361.47 173.296 361.305 173.73C361.142 174.161 361.061 174.645 361.061 175.182C361.061 175.725 361.144 176.219 361.31 176.663C361.479 177.104 361.727 177.455 362.055 177.717C362.387 177.976 362.798 178.105 363.288 178.105ZM369.141 179V171.364H370.314V179H369.141ZM369.738 170.091C369.509 170.091 369.312 170.013 369.146 169.857C368.984 169.701 368.902 169.514 368.902 169.295C368.902 169.077 368.984 168.889 369.146 168.734C369.312 168.578 369.509 168.5 369.738 168.5C369.966 168.5 370.162 168.578 370.324 168.734C370.49 168.889 370.573 169.077 370.573 169.295C370.573 169.514 370.49 169.701 370.324 169.857C370.162 170.013 369.966 170.091 369.738 170.091ZM373.837 174.406V179H372.663V171.364H373.797V172.557H373.896C374.075 172.169 374.347 171.857 374.712 171.622C375.076 171.384 375.547 171.264 376.124 171.264C376.641 171.264 377.093 171.37 377.481 171.582C377.869 171.791 378.17 172.109 378.386 172.537C378.601 172.961 378.709 173.498 378.709 174.148V179H377.535V174.227C377.535 173.627 377.38 173.16 377.068 172.825C376.757 172.487 376.329 172.318 375.785 172.318C375.411 172.318 375.076 172.399 374.781 172.562C374.49 172.724 374.259 172.961 374.09 173.273C373.921 173.584 373.837 173.962 373.837 174.406ZM384.135 182.023C383.568 182.023 383.081 181.95 382.674 181.804C382.266 181.661 381.926 181.473 381.654 181.237C381.386 181.005 381.172 180.757 381.013 180.491L381.948 179.835C382.054 179.974 382.188 180.134 382.35 180.312C382.513 180.495 382.735 180.652 383.017 180.785C383.302 180.921 383.674 180.989 384.135 180.989C384.752 180.989 385.26 180.839 385.661 180.541C386.062 180.243 386.263 179.776 386.263 179.139V177.588H386.164C386.077 177.727 385.955 177.9 385.796 178.105C385.64 178.307 385.415 178.488 385.12 178.647C384.828 178.803 384.433 178.881 383.936 178.881C383.32 178.881 382.766 178.735 382.276 178.443C381.789 178.152 381.402 177.727 381.117 177.17C380.836 176.614 380.695 175.937 380.695 175.142C380.695 174.36 380.832 173.679 381.107 173.099C381.383 172.515 381.765 172.065 382.256 171.746C382.746 171.425 383.313 171.264 383.956 171.264C384.453 171.264 384.848 171.347 385.139 171.513C385.434 171.675 385.66 171.861 385.816 172.07C385.975 172.275 386.097 172.444 386.183 172.577H386.303V171.364H387.436V179.219C387.436 179.875 387.287 180.409 386.989 180.82C386.694 181.234 386.296 181.537 385.796 181.729C385.299 181.925 384.745 182.023 384.135 182.023ZM384.095 177.827C384.566 177.827 384.964 177.719 385.289 177.504C385.613 177.288 385.86 176.978 386.029 176.574C386.198 176.17 386.283 175.686 386.283 175.122C386.283 174.572 386.2 174.086 386.034 173.665C385.869 173.245 385.623 172.915 385.299 172.676C384.974 172.437 384.573 172.318 384.095 172.318C383.598 172.318 383.184 172.444 382.852 172.696C382.524 172.948 382.277 173.286 382.112 173.71C381.949 174.134 381.868 174.605 381.868 175.122C381.868 175.652 381.951 176.121 382.117 176.529C382.286 176.933 382.534 177.252 382.862 177.484C383.194 177.712 383.605 177.827 384.095 177.827ZM395.193 173.074L394.139 173.372C394.073 173.196 393.975 173.026 393.846 172.86C393.72 172.691 393.548 172.552 393.329 172.442C393.11 172.333 392.83 172.278 392.489 172.278C392.021 172.278 391.632 172.386 391.32 172.602C391.012 172.814 390.858 173.084 390.858 173.412C390.858 173.704 390.964 173.934 391.176 174.103C391.388 174.272 391.72 174.413 392.17 174.526L393.304 174.804C393.987 174.97 394.495 175.223 394.83 175.565C395.165 175.903 395.332 176.339 395.332 176.872C395.332 177.31 395.206 177.701 394.954 178.045C394.706 178.39 394.358 178.662 393.91 178.861C393.463 179.06 392.943 179.159 392.349 179.159C391.57 179.159 390.926 178.99 390.415 178.652C389.905 178.314 389.582 177.82 389.446 177.17L390.56 176.892C390.666 177.303 390.866 177.611 391.161 177.817C391.459 178.022 391.849 178.125 392.329 178.125C392.876 178.125 393.311 178.009 393.632 177.777C393.957 177.542 394.119 177.26 394.119 176.932C394.119 176.667 394.026 176.445 393.841 176.266C393.655 176.083 393.37 175.947 392.986 175.858L391.713 175.56C391.014 175.394 390.5 175.137 390.172 174.789C389.847 174.438 389.685 173.999 389.685 173.472C389.685 173.041 389.806 172.66 390.048 172.328C390.293 171.997 390.626 171.737 391.047 171.548C391.471 171.359 391.952 171.264 392.489 171.264C393.244 171.264 393.838 171.43 394.268 171.761C394.703 172.093 395.011 172.53 395.193 173.074Z" fill="#888888"/>
</g>
</g>
</g>
</g>
</g>
<rect width="240" height="800" fill="#131313"/>
<path d="M37.6134 24H22.3866C21.066 24 20 25.066 20 26.3866V41.6134C20 42.934 21.066 44 22.3866 44H37.6134C38.934 44 40 42.934 40 41.6134V26.3866C40 25.066 38.934 24 37.6134 24ZM35.1153 34.175C34.9562 34.6364 34.6858 35.3206 34.288 35.965C33.8663 36.6571 33.397 37.1344 32.9037 37.3731C32.6492 37.5004 32.3866 37.564 32.1241 37.564C32.0207 37.564 31.9173 37.5561 31.8218 37.5322C31.4558 37.4606 31.1058 37.2776 30.7876 36.9674C30.2307 36.4264 29.7534 35.5115 29.3158 34.1591C28.8783 32.7987 28.4805 32.2259 28.2259 31.9793C28.0986 31.86 28.0191 31.8282 27.9793 31.8202C27.9554 31.8202 27.9157 31.8202 27.8361 31.852C27.6134 31.9554 27.3349 32.2578 27.0644 32.6873C26.8019 33.101 26.5473 33.6261 26.3484 34.183C26.2052 34.5807 25.7677 34.7876 25.362 34.6444C25.1631 34.5728 25.004 34.4375 24.9165 34.2466C24.829 34.0636 24.821 33.8568 24.8846 33.6659C25.0517 33.2044 25.3381 32.5203 25.7438 31.8759C26.1814 31.1838 26.6587 30.7144 27.1599 30.4757C27.5179 30.3087 27.8838 30.253 28.2498 30.3166C28.6237 30.3803 28.9737 30.5712 29.292 30.8735C29.8568 31.4145 30.3421 32.3373 30.7796 33.6897C31.2172 35.0501 31.607 35.6309 31.8616 35.8695C31.9889 35.9968 32.0684 36.0207 32.0923 36.0207C32.1082 36.0207 32.14 36.0286 32.2116 35.9889C32.4264 35.8854 32.6969 35.5831 32.9515 35.1615C33.206 34.7478 33.4447 34.2148 33.6356 33.6659C33.7709 33.2681 34.2084 33.0533 34.6142 33.1885C34.813 33.2522 34.9721 33.3954 35.0676 33.5784C35.1551 33.7613 35.171 33.9682 35.1074 34.1591L35.1153 34.175Z" fill="#FAFAFA"/>
<path d="M56.293 34.2621C56.6112 33.7529 56.7703 33.1324 56.7703 32.4085C56.7703 31.6845 56.6112 31.0719 56.301 30.5469C55.9907 30.0218 55.5452 29.6161 54.9724 29.3377C54.3996 29.0513 53.7234 28.916 52.9358 28.916H48.6001V39.4013H51.1379V35.8134H52.4346L54.3519 39.4013H57.1204L54.9485 35.4077C55.5293 35.1451 55.9748 34.7553 56.2851 34.2541L56.293 34.2621ZM51.1458 30.9606H52.3948C52.7767 30.9606 53.0949 31.0163 53.3495 31.1276C53.612 31.2311 53.803 31.3902 53.9382 31.605C54.0734 31.8198 54.1371 32.0823 54.1371 32.4085C54.1371 32.7346 54.0734 32.9972 53.9382 33.204C53.803 33.4108 53.612 33.562 53.3495 33.6654C53.0949 33.7609 52.7767 33.8166 52.3948 33.8166H51.1458V30.9606Z" fill="#FAFAFA"/>
<path d="M62.5854 28.916H60.0476V39.4013H62.5854V28.916Z" fill="#FAFAFA"/>
<path d="M70.8672 36.593H70.7797L68.4329 28.916H65.5928L69.1329 39.4013H72.5061L76.0462 28.916H73.2061L70.8672 36.593Z" fill="#FAFAFA"/>
<path d="M79.0532 39.4013H86.3722V37.3408H81.591V35.1849H85.9983V33.1244H81.591V30.9765H86.3722V28.916H79.0532V39.4013Z" fill="#FAFAFA"/>
<path d="M97.5179 34.2621C97.8361 33.7529 97.9952 33.1324 97.9952 32.4085C97.9952 31.6845 97.8361 31.0719 97.5258 30.5469C97.2156 30.0218 96.7701 29.6161 96.1973 29.3377C95.6245 29.0513 94.9483 28.916 94.1607 28.916H89.825V39.4013H92.3627V35.8134H93.6595L95.5767 39.4013H98.3452L96.1734 35.4077C96.7541 35.1451 97.1997 34.7553 97.5099 34.2541L97.5179 34.2621ZM92.3707 30.9606H93.6197C94.0016 30.9606 94.3198 31.0163 94.5744 31.1276C94.8369 31.2311 95.0278 31.3902 95.1631 31.605C95.2983 31.8198 95.3619 32.0823 95.3619 32.4085C95.3619 32.7346 95.2983 32.9972 95.1631 33.204C95.0278 33.4108 94.8369 33.562 94.5744 33.6654C94.3198 33.7609 94.0016 33.8166 93.6197 33.8166H92.3707V30.9606Z" fill="#FAFAFA"/>
<path d="M108.671 34.3265C108.401 34.064 108.067 33.8412 107.669 33.6582C107.271 33.4673 106.818 33.3241 106.301 33.2048L105.402 32.9979C105.163 32.9502 104.948 32.8865 104.757 32.8149C104.566 32.7433 104.399 32.6717 104.264 32.5763C104.129 32.4808 104.025 32.3774 103.954 32.2581C103.882 32.1387 103.858 32.0035 103.858 31.8444C103.858 31.6535 103.922 31.4864 104.025 31.3352C104.137 31.1841 104.296 31.0647 104.519 30.9852C104.741 30.8977 105.012 30.8579 105.338 30.8579C105.831 30.8579 106.213 30.9613 106.484 31.1761C106.754 31.383 106.905 31.6773 106.937 32.0512H109.364C109.364 31.3989 109.189 30.8261 108.854 30.3328C108.52 29.8396 108.059 29.4577 107.454 29.1793C106.858 28.9009 106.15 28.7656 105.338 28.7656C104.527 28.7656 103.835 28.9009 103.214 29.1714C102.594 29.4418 102.108 29.8237 101.75 30.3169C101.4 30.8022 101.225 31.375 101.225 32.0194C101.225 32.8149 101.48 33.4434 102.005 33.9128C102.53 34.3742 103.238 34.7163 104.153 34.9231L105.251 35.1777C105.632 35.2652 105.951 35.3607 106.189 35.4721C106.436 35.5755 106.619 35.6948 106.746 35.838C106.866 35.9812 106.929 36.1483 106.929 36.3472C106.929 36.562 106.858 36.7449 106.73 36.912C106.603 37.0791 106.412 37.2064 106.173 37.2939C105.935 37.3893 105.648 37.4291 105.306 37.4291C104.932 37.4291 104.606 37.3734 104.32 37.2541C104.041 37.1348 103.819 36.9677 103.66 36.7449C103.5 36.5222 103.405 36.2358 103.389 35.9017H100.963C100.971 36.7211 101.162 37.3973 101.52 37.9383C101.885 38.4713 102.387 38.877 103.039 39.1395C103.691 39.4021 104.455 39.5373 105.33 39.5373C106.205 39.5373 106.953 39.41 107.566 39.1554C108.186 38.9009 108.664 38.5429 108.998 38.0655C109.332 37.5882 109.499 37.0234 109.499 36.3631C109.499 35.9414 109.427 35.5675 109.284 35.2254C109.141 34.8913 108.942 34.589 108.664 34.3265H108.671Z" fill="#FAFAFA"/>
<path d="M115.203 28.916H112.665V39.4013H115.203V28.916Z" fill="#FAFAFA"/>
<path d="M125.306 29.5445C124.534 29.1229 123.611 28.916 122.545 28.916H118.671V39.4013H122.545C123.611 39.4013 124.526 39.1944 125.306 38.7728C126.078 38.3512 126.674 37.7466 127.096 36.9669C127.518 36.1793 127.724 35.2406 127.724 34.1507C127.724 33.0608 127.518 32.13 127.096 31.3424C126.674 30.5548 126.078 29.9582 125.306 29.5365V29.5445ZM124.868 35.9645C124.662 36.418 124.351 36.7442 123.946 36.9431C123.54 37.1419 123.039 37.2374 122.458 37.2374H121.217V31.0719H122.426C123.031 31.0719 123.532 31.1754 123.946 31.3742C124.359 31.5731 124.67 31.8993 124.884 32.3448C125.099 32.7903 125.203 33.3949 125.203 34.1507C125.203 34.9065 125.099 35.5111 124.884 35.9645H124.868Z" fill="#FAFAFA"/>
<path d="M131.09 39.4013H138.401V37.3408H133.628V35.1849H138.027V33.1244H133.628V30.9765H138.401V28.916H131.09V39.4013Z" fill="#FAFAFA"/>
<g clip-path="url(#clip8_2550_12085)">
<path d="M36 116L33.1 113.1M34.6667 109.333C34.6667 112.279 32.2789 114.667 29.3333 114.667C26.3878 114.667 24 112.279 24 109.333C24 106.388 26.3878 104 29.3333 104C32.2789 104 34.6667 106.388 34.6667 109.333Z" stroke="#555555" stroke-width="1.5" stroke-linecap="round" stroke-linejoin="round"/>
<path d="M57.4929 107.783C57.4588 107.439 57.3125 107.172 57.054 106.982C56.7955 106.791 56.4446 106.696 56.0014 106.696C55.7003 106.696 55.446 106.739 55.2386 106.824C55.0313 106.906 54.8722 107.021 54.7614 107.169C54.6534 107.317 54.5994 107.484 54.5994 107.672C54.5938 107.828 54.6264 107.964 54.6974 108.081C54.7713 108.197 54.8722 108.298 55 108.384C55.1278 108.466 55.2756 108.538 55.4432 108.601C55.6108 108.661 55.7898 108.712 55.9801 108.754L56.7642 108.942C57.1449 109.027 57.4943 109.141 57.8125 109.283C58.1307 109.425 58.4063 109.599 58.6392 109.807C58.8722 110.014 59.0526 110.259 59.1804 110.54C59.3111 110.821 59.3778 111.143 59.3807 111.507C59.3778 112.041 59.2415 112.504 58.9716 112.896C58.7045 113.286 58.3182 113.588 57.8125 113.804C57.3097 114.017 56.7031 114.124 55.9929 114.124C55.2884 114.124 54.6747 114.016 54.152 113.8C53.6321 113.584 53.2259 113.264 52.9332 112.841C52.6435 112.415 52.4915 111.888 52.4773 111.26H54.2628C54.2827 111.553 54.3665 111.797 54.5142 111.993C54.6648 112.186 54.8651 112.332 55.1151 112.432C55.3679 112.528 55.6534 112.577 55.9716 112.577C56.2841 112.577 56.5554 112.531 56.7855 112.44C57.0185 112.349 57.1989 112.223 57.3267 112.061C57.4545 111.899 57.5185 111.713 57.5185 111.503C57.5185 111.307 57.4602 111.142 57.3438 111.009C57.2301 110.875 57.0625 110.761 56.8409 110.668C56.6222 110.574 56.3537 110.489 56.0355 110.412L55.0852 110.173C54.3494 109.994 53.7685 109.714 53.3423 109.334C52.9162 108.953 52.7045 108.44 52.7074 107.795C52.7045 107.267 52.8452 106.805 53.1293 106.411C53.4162 106.016 53.8097 105.707 54.3097 105.486C54.8097 105.264 55.3778 105.153 56.0142 105.153C56.6619 105.153 57.2273 105.264 57.7102 105.486C58.196 105.707 58.5739 106.016 58.8438 106.411C59.1136 106.805 59.2528 107.263 59.2614 107.783H57.4929ZM64.2692 107.455V108.818H60.3275V107.455H64.2692ZM61.2224 105.886H63.0377V111.989C63.0377 112.156 63.0633 112.287 63.1144 112.381C63.1656 112.472 63.2366 112.536 63.3275 112.572C63.4212 112.609 63.5292 112.628 63.6513 112.628C63.7366 112.628 63.8218 112.621 63.907 112.607C63.9923 112.589 64.0576 112.577 64.1031 112.568L64.3886 113.919C64.2977 113.947 64.1698 113.98 64.005 114.017C63.8403 114.057 63.64 114.081 63.4042 114.089C62.9667 114.107 62.5832 114.048 62.2536 113.915C61.9269 113.781 61.6727 113.574 61.4908 113.293C61.309 113.011 61.2195 112.656 61.2224 112.227V105.886ZM69.8492 111.213V107.455H71.6646V114H69.9217V112.811H69.8535C69.7058 113.195 69.46 113.503 69.1163 113.736C68.7754 113.969 68.3592 114.085 67.8677 114.085C67.4302 114.085 67.0452 113.986 66.7129 113.787C66.3805 113.588 66.1205 113.305 65.933 112.939C65.7484 112.572 65.6546 112.134 65.6518 111.622V107.455H67.4671V111.298C67.47 111.685 67.5737 111.99 67.7782 112.214C67.9827 112.439 68.2569 112.551 68.6006 112.551C68.8194 112.551 69.0239 112.501 69.2143 112.402C69.4046 112.3 69.558 112.149 69.6745 111.95C69.7938 111.751 69.8521 111.506 69.8492 111.213ZM75.7286 114.107C75.2314 114.107 74.7811 113.979 74.3777 113.723C73.9771 113.464 73.6589 113.085 73.4232 112.585C73.1902 112.082 73.0737 111.466 73.0737 110.736C73.0737 109.986 73.1945 109.362 73.4359 108.865C73.6774 108.365 73.9984 107.991 74.399 107.744C74.8024 107.494 75.2442 107.369 75.7243 107.369C76.0908 107.369 76.3962 107.432 76.6405 107.557C76.8876 107.679 77.0865 107.832 77.2371 108.017C77.3905 108.199 77.507 108.378 77.5865 108.554H77.6419V105.273H79.453V114H77.6632V112.952H77.5865C77.5013 113.134 77.3805 113.314 77.2243 113.493C77.0709 113.669 76.8706 113.815 76.6234 113.932C76.3791 114.048 76.0808 114.107 75.7286 114.107ZM76.3038 112.662C76.5964 112.662 76.8436 112.582 77.0453 112.423C77.2499 112.261 77.4061 112.036 77.5141 111.746C77.6249 111.456 77.6803 111.116 77.6803 110.727C77.6803 110.338 77.6263 110 77.5183 109.713C77.4104 109.426 77.2541 109.205 77.0496 109.048C76.845 108.892 76.5964 108.814 76.3038 108.814C76.0055 108.814 75.7541 108.895 75.5496 109.057C75.345 109.219 75.1902 109.443 75.0851 109.73C74.98 110.017 74.9274 110.349 74.9274 110.727C74.9274 111.108 74.98 111.445 75.0851 111.737C75.193 112.027 75.3479 112.254 75.5496 112.419C75.7541 112.581 76.0055 112.662 76.3038 112.662ZM81.1455 114V107.455H82.9609V114H81.1455ZM82.0575 106.611C81.7876 106.611 81.556 106.521 81.3629 106.342C81.1725 106.161 81.0773 105.943 81.0773 105.69C81.0773 105.44 81.1725 105.226 81.3629 105.047C81.556 104.865 81.7876 104.774 82.0575 104.774C82.3273 104.774 82.5575 104.865 82.7478 105.047C82.941 105.226 83.0376 105.44 83.0376 105.69C83.0376 105.943 82.941 106.161 82.7478 106.342C82.5575 106.521 82.3273 106.611 82.0575 106.611ZM87.5724 114.128C86.9105 114.128 86.3381 113.987 85.8551 113.706C85.375 113.422 85.0043 113.027 84.7429 112.521C84.4815 112.013 84.3509 111.423 84.3509 110.753C84.3509 110.077 84.4815 109.486 84.7429 108.98C85.0043 108.472 85.375 108.077 85.8551 107.795C86.3381 107.511 86.9105 107.369 87.5724 107.369C88.2344 107.369 88.8054 107.511 89.2855 107.795C89.7685 108.077 90.1406 108.472 90.402 108.98C90.6634 109.486 90.794 110.077 90.794 110.753C90.794 111.423 90.6634 112.013 90.402 112.521C90.1406 113.027 89.7685 113.422 89.2855 113.706C88.8054 113.987 88.2344 114.128 87.5724 114.128ZM87.581 112.722C87.8821 112.722 88.1335 112.636 88.3352 112.466C88.5369 112.293 88.6889 112.057 88.7912 111.759C88.8963 111.46 88.9489 111.121 88.9489 110.74C88.9489 110.359 88.8963 110.02 88.7912 109.722C88.6889 109.423 88.5369 109.187 88.3352 109.014C88.1335 108.841 87.8821 108.754 87.581 108.754C87.277 108.754 87.0213 108.841 86.8139 109.014C86.6094 109.187 86.4545 109.423 86.3494 109.722C86.2472 110.02 86.196 110.359 86.196 110.74C86.196 111.121 86.2472 111.46 86.3494 111.759C86.4545 112.057 86.6094 112.293 86.8139 112.466C87.0213 112.636 87.277 112.722 87.581 112.722ZM97.6205 109.321L95.9585 109.423C95.9301 109.281 95.869 109.153 95.7753 109.04C95.6815 108.923 95.558 108.831 95.4045 108.763C95.254 108.692 95.0736 108.656 94.8634 108.656C94.5821 108.656 94.3449 108.716 94.1517 108.835C93.9585 108.952 93.8619 109.108 93.8619 109.304C93.8619 109.46 93.9244 109.592 94.0494 109.7C94.1744 109.808 94.3889 109.895 94.6929 109.96L95.8776 110.199C96.5139 110.33 96.9884 110.54 97.3009 110.83C97.6134 111.119 97.7696 111.5 97.7696 111.972C97.7696 112.401 97.6432 112.777 97.3903 113.101C97.1403 113.425 96.7966 113.678 96.3591 113.859C95.9244 114.038 95.423 114.128 94.8548 114.128C93.9884 114.128 93.298 113.947 92.7838 113.587C92.2724 113.223 91.9727 112.729 91.8847 112.104L93.6702 112.01C93.7241 112.274 93.8548 112.476 94.0622 112.615C94.2696 112.751 94.5352 112.82 94.8591 112.82C95.1773 112.82 95.433 112.759 95.6261 112.636C95.8222 112.511 95.9216 112.351 95.9244 112.155C95.9216 111.99 95.852 111.855 95.7156 111.75C95.5793 111.642 95.369 111.56 95.0849 111.503L93.9514 111.277C93.3122 111.149 92.8364 110.928 92.5239 110.612C92.2142 110.297 92.0594 109.895 92.0594 109.406C92.0594 108.986 92.173 108.624 92.4003 108.32C92.6304 108.016 92.9528 107.781 93.3676 107.616C93.7852 107.452 94.2739 107.369 94.8335 107.369C95.6602 107.369 96.3108 107.544 96.7852 107.893C97.2625 108.243 97.5409 108.719 97.6205 109.321Z" fill="#555555"/>
<path d="M210 104.167V115.833M204.167 110H215.833" stroke="#BBBBBB" stroke-width="1.5" stroke-linecap="round" stroke-linejoin="round"/>
<g filter="url(#filter2_d_2550_12085)">
<rect x="168.5" y="64" width="84" height="28" rx="8" fill="#383838" shape-rendering="crispEdges"/>
</g>
</g>
<rect x="12" y="136" width="216" height="44" rx="10" fill="#1D1D1D"/>
<rect x="20" y="144" width="28" height="28" rx="8" fill="#2B2B2B"/>
<path d="M35.5649 156.199C35.5285 155.858 35.3748 155.592 35.104 155.402C34.8358 155.212 34.4868 155.117 34.0571 155.117C33.755 155.117 33.4959 155.163 33.2798 155.254C33.0636 155.345 32.8983 155.469 32.7837 155.625C32.6691 155.781 32.6105 155.96 32.6079 156.16C32.6079 156.327 32.6457 156.471 32.7212 156.594C32.7993 156.716 32.9048 156.82 33.0376 156.906C33.1704 156.99 33.3175 157.06 33.479 157.117C33.6405 157.174 33.8032 157.223 33.9673 157.262L34.7173 157.449C35.0194 157.52 35.3097 157.615 35.5884 157.734C35.8696 157.854 36.1209 158.005 36.3423 158.188C36.5662 158.37 36.7433 158.59 36.8735 158.848C37.0037 159.105 37.0688 159.408 37.0688 159.754C37.0688 160.223 36.9491 160.635 36.7095 160.992C36.4699 161.346 36.1235 161.624 35.6704 161.824C35.2199 162.022 34.6743 162.121 34.0337 162.121C33.4113 162.121 32.8709 162.025 32.4126 161.832C31.9569 161.639 31.6001 161.358 31.3423 160.988C31.0871 160.618 30.9491 160.168 30.9282 159.637H32.354C32.3748 159.915 32.4608 160.147 32.6118 160.332C32.7629 160.517 32.9595 160.655 33.2017 160.746C33.4465 160.837 33.7199 160.883 34.022 160.883C34.3371 160.883 34.6131 160.836 34.8501 160.742C35.0897 160.646 35.2772 160.513 35.4126 160.344C35.548 160.172 35.617 159.971 35.6196 159.742C35.617 159.534 35.5558 159.362 35.436 159.227C35.3162 159.089 35.1483 158.974 34.9321 158.883C34.7186 158.789 34.4686 158.706 34.1821 158.633L33.272 158.398C32.6131 158.229 32.0923 157.973 31.7095 157.629C31.3293 157.283 31.1392 156.823 31.1392 156.25C31.1392 155.779 31.2668 155.366 31.522 155.012C31.7798 154.658 32.13 154.383 32.5728 154.187C33.0155 153.99 33.5168 153.891 34.0767 153.891C34.6444 153.891 35.1418 153.99 35.5688 154.187C35.9985 154.383 36.3358 154.655 36.5806 155.004C36.8254 155.35 36.9517 155.749 36.9595 156.199H35.5649Z" fill="#FAFAFA"/>
<path d="M65.6037 155.672C65.5639 155.3 65.3963 155.01 65.1009 154.803C64.8082 154.595 64.4276 154.491 63.9588 154.491C63.6293 154.491 63.3466 154.541 63.1108 154.641C62.875 154.74 62.6946 154.875 62.5696 155.045C62.4446 155.216 62.3807 155.411 62.3778 155.629C62.3778 155.811 62.419 155.969 62.5014 156.102C62.5866 156.236 62.7017 156.349 62.8466 156.443C62.9915 156.534 63.152 156.611 63.3281 156.673C63.5043 156.736 63.6818 156.788 63.8608 156.831L64.679 157.036C65.0085 157.112 65.3253 157.216 65.6293 157.347C65.9361 157.477 66.2102 157.642 66.4517 157.841C66.696 158.04 66.8892 158.28 67.0312 158.561C67.1733 158.842 67.2443 159.172 67.2443 159.55C67.2443 160.061 67.1136 160.511 66.8523 160.901C66.5909 161.287 66.2131 161.589 65.7188 161.808C65.2273 162.024 64.6321 162.132 63.9332 162.132C63.2543 162.132 62.6648 162.027 62.1648 161.817C61.6676 161.607 61.2784 161.3 60.9972 160.896C60.7188 160.493 60.5682 160.001 60.5455 159.422H62.1009C62.1236 159.726 62.2173 159.979 62.3821 160.18C62.5469 160.382 62.7614 160.533 63.0256 160.632C63.2926 160.732 63.5909 160.781 63.9205 160.781C64.2642 160.781 64.5653 160.73 64.8239 160.628C65.0852 160.523 65.2898 160.378 65.4375 160.193C65.5852 160.006 65.6605 159.787 65.6634 159.537C65.6605 159.31 65.5938 159.122 65.4631 158.974C65.3324 158.824 65.1491 158.699 64.9134 158.599C64.6804 158.497 64.4077 158.406 64.0952 158.327L63.1023 158.071C62.3835 157.886 61.8153 157.607 61.3977 157.232C60.983 156.854 60.7756 156.352 60.7756 155.727C60.7756 155.213 60.9148 154.763 61.1932 154.376C61.4744 153.99 61.8565 153.69 62.3395 153.477C62.8224 153.261 63.3693 153.153 63.9801 153.153C64.5994 153.153 65.142 153.261 65.608 153.477C66.0767 153.69 66.4446 153.987 66.7116 154.368C66.9787 154.746 67.1165 155.18 67.125 155.672H65.6037ZM72.054 155.455V156.648H68.2913V155.455H72.054ZM69.2202 153.886H70.7629V160.031C70.7629 160.239 70.7941 160.398 70.8566 160.509C70.9219 160.616 71.0072 160.69 71.1123 160.73C71.2174 160.77 71.3339 160.79 71.4617 160.79C71.5583 160.79 71.6464 160.783 71.7259 160.768C71.8083 160.754 71.8708 160.741 71.9134 160.73L72.1734 161.936C72.091 161.964 71.9731 161.996 71.8197 162.03C71.6691 162.064 71.4844 162.084 71.2657 162.089C70.8793 162.101 70.5313 162.043 70.2217 161.915C69.912 161.784 69.6663 161.582 69.4844 161.31C69.3055 161.037 69.2174 160.696 69.2202 160.287V153.886ZM77.7161 159.247V155.455H79.2587V162H77.7629V160.837H77.6947C77.547 161.203 77.3041 161.503 76.9661 161.736C76.6308 161.969 76.2175 162.085 75.726 162.085C75.297 162.085 74.9178 161.99 74.5882 161.8C74.2615 161.607 74.0058 161.327 73.8212 160.96C73.6365 160.591 73.5442 160.145 73.5442 159.622V155.455H75.0868V159.384C75.0868 159.798 75.2004 160.128 75.4277 160.372C75.655 160.616 75.9533 160.739 76.3226 160.739C76.5499 160.739 76.77 160.683 76.9831 160.572C77.1962 160.462 77.3709 160.297 77.5072 160.078C77.6464 159.857 77.7161 159.58 77.7161 159.247ZM83.4739 162.115C82.9597 162.115 82.4995 161.983 82.0933 161.719C81.687 161.455 81.366 161.071 81.1302 160.568C80.8944 160.065 80.7765 159.455 80.7765 158.736C80.7765 158.009 80.8958 157.395 81.1344 156.895C81.3759 156.392 81.7012 156.013 82.1103 155.757C82.5194 155.499 82.9754 155.369 83.4782 155.369C83.8617 155.369 84.1771 155.435 84.4242 155.565C84.6714 155.693 84.8674 155.848 85.0123 156.03C85.1572 156.209 85.2694 156.378 85.3489 156.537H85.4129V153.273H86.9597V162H85.4427V160.969H85.3489C85.2694 161.128 85.1543 161.297 85.0038 161.476C84.8532 161.652 84.6543 161.803 84.4072 161.928C84.16 162.053 83.8489 162.115 83.4739 162.115ZM83.9043 160.849C84.231 160.849 84.5094 160.761 84.7396 160.585C84.9697 160.406 85.1444 160.158 85.2637 159.839C85.383 159.521 85.4427 159.151 85.4427 158.727C85.4427 158.304 85.383 157.936 85.2637 157.624C85.1472 157.311 84.9739 157.068 84.7438 156.895C84.5165 156.722 84.2367 156.635 83.9043 156.635C83.5606 156.635 83.2737 156.724 83.0435 156.903C82.8134 157.082 82.6401 157.33 82.5237 157.645C82.4072 157.96 82.3489 158.321 82.3489 158.727C82.3489 159.136 82.4072 159.501 82.5237 159.822C82.643 160.141 82.8177 160.392 83.0478 160.577C83.2808 160.759 83.5663 160.849 83.9043 160.849ZM88.8036 162V155.455H90.3462V162H88.8036ZM89.5791 154.526C89.3348 154.526 89.1246 154.445 88.9484 154.283C88.7723 154.118 88.6842 153.92 88.6842 153.69C88.6842 153.457 88.7723 153.26 88.9484 153.098C89.1246 152.933 89.3348 152.851 89.5791 152.851C89.8263 152.851 90.0365 152.933 90.2098 153.098C90.3859 153.26 90.474 153.457 90.474 153.69C90.474 153.92 90.3859 154.118 90.2098 154.283C90.0365 154.445 89.8263 154.526 89.5791 154.526ZM94.9876 162.128C94.3484 162.128 93.7944 161.987 93.3256 161.706C92.8569 161.425 92.4933 161.031 92.2347 160.526C91.979 160.02 91.8512 159.429 91.8512 158.753C91.8512 158.077 91.979 157.484 92.2347 156.976C92.4933 156.467 92.8569 156.072 93.3256 155.791C93.7944 155.51 94.3484 155.369 94.9876 155.369C95.6268 155.369 96.1808 155.51 96.6495 155.791C97.1183 156.072 97.4805 156.467 97.7362 156.976C97.9947 157.484 98.1239 158.077 98.1239 158.753C98.1239 159.429 97.9947 160.02 97.7362 160.526C97.4805 161.031 97.1183 161.425 96.6495 161.706C96.1808 161.987 95.6268 162.128 94.9876 162.128ZM94.9961 160.892C95.3427 160.892 95.6325 160.797 95.8654 160.607C96.0984 160.413 96.2717 160.155 96.3853 159.831C96.5018 159.507 96.56 159.146 96.56 158.749C96.56 158.348 96.5018 157.986 96.3853 157.662C96.2717 157.335 96.0984 157.075 95.8654 156.882C95.6325 156.689 95.3427 156.592 94.9961 156.592C94.641 156.592 94.3455 156.689 94.1097 156.882C93.8768 157.075 93.7021 157.335 93.5856 157.662C93.4719 157.986 93.4151 158.348 93.4151 158.749C93.4151 159.146 93.4719 159.507 93.5856 159.831C93.7021 160.155 93.8768 160.413 94.1097 160.607C94.3455 160.797 94.641 160.892 94.9961 160.892Z" fill="#FAFAFA"/>
<rect x="12" y="196" width="100" height="20" rx="8" fill="url(#paint0_linear_2550_12085)"/>
<g opacity="0.5">
<rect x="12" y="232" width="216" height="36" rx="8" fill="url(#paint1_linear_2550_12085)"/>
<rect x="12" y="276" width="216" height="36" rx="8" fill="url(#paint2_linear_2550_12085)"/>
<rect x="12" y="320" width="216" height="36" rx="8" fill="url(#paint3_linear_2550_12085)"/>
</g>
<g opacity="0.5">
<rect x="12" y="364" width="216" height="36" rx="8" fill="url(#paint4_linear_2550_12085)"/>
<rect x="12" y="408" width="216" height="36" rx="8" fill="url(#paint5_linear_2550_12085)"/>
<rect x="12" y="452" width="216" height="36" rx="8" fill="url(#paint6_linear_2550_12085)"/>
</g>
</g>
<g opacity="0.3">
<rect width="1200" height="1595" fill="#0E0E0E"/>
</g>
</g>
<defs>
<filter id="filter0_f_2550_12085" x="-6" y="-6" width="1212" height="1619" filterUnits="userSpaceOnUse" color-interpolation-filters="sRGB">
<feFlood flood-opacity="0" result="BackgroundImageFix"/>
<feBlend mode="normal" in="SourceGraphic" in2="BackgroundImageFix" result="shape"/>
<feGaussianBlur stdDeviation="3" result="effect1_foregroundBlur_2550_12085"/>
</filter>
<filter id="filter1_d_2550_12085" x="153.5" y="31" width="114" height="58" filterUnits="userSpaceOnUse" color-interpolation-filters="sRGB">
<feFlood flood-opacity="0" result="BackgroundImageFix"/>
<feColorMatrix in="SourceAlpha" type="matrix" values="0 0 0 0 0 0 0 0 0 0 0 0 0 0 0 0 0 0 127 0" result="hardAlpha"/>
<feOffset dy="6"/>
<feGaussianBlur stdDeviation="7.5"/>
<feComposite in2="hardAlpha" operator="out"/>
<feColorMatrix type="matrix" values="0 0 0 0 0.0666667 0 0 0 0 0.0666667 0 0 0 0 0.0666667 0 0 0 0.1 0"/>
<feBlend mode="normal" in2="BackgroundImageFix" result="effect1_dropShadow_2550_12085"/>
<feBlend mode="normal" in="SourceGraphic" in2="effect1_dropShadow_2550_12085" result="shape"/>
</filter>
<filter id="filter2_d_2550_12085" x="153.5" y="55" width="114" height="58" filterUnits="userSpaceOnUse" color-interpolation-filters="sRGB">
<feFlood flood-opacity="0" result="BackgroundImageFix"/>
<feColorMatrix in="SourceAlpha" type="matrix" values="0 0 0 0 0 0 0 0 0 0 0 0 0 0 0 0 0 0 127 0" result="hardAlpha"/>
<feOffset dy="6"/>
<feGaussianBlur stdDeviation="7.5"/>
<feComposite in2="hardAlpha" operator="out"/>
<feColorMatrix type="matrix" values="0 0 0 0 0.0666667 0 0 0 0 0.0666667 0 0 0 0 0.0666667 0 0 0 0.1 0"/>
<feBlend mode="normal" in2="BackgroundImageFix" result="effect1_dropShadow_2550_12085"/>
<feBlend mode="normal" in="SourceGraphic" in2="effect1_dropShadow_2550_12085" result="shape"/>
</filter>
<linearGradient id="paint0_linear_2550_12085" x1="112" y1="196" x2="15.7037" y2="196" gradientUnits="userSpaceOnUse">
<stop stop-color="#1D1D1D"/>
<stop offset="1" stop-color="#1D1D1D" stop-opacity="0.3"/>
</linearGradient>
<linearGradient id="paint1_linear_2550_12085" x1="228" y1="232" x2="20" y2="232" gradientUnits="userSpaceOnUse">
<stop stop-color="#1D1D1D"/>
<stop offset="1" stop-color="#1D1D1D" stop-opacity="0.3"/>
</linearGradient>
<linearGradient id="paint2_linear_2550_12085" x1="228" y1="276" x2="20" y2="276" gradientUnits="userSpaceOnUse">
<stop stop-color="#1D1D1D"/>
<stop offset="1" stop-color="#1D1D1D" stop-opacity="0.3"/>
</linearGradient>
<linearGradient id="paint3_linear_2550_12085" x1="228" y1="320" x2="20" y2="320" gradientUnits="userSpaceOnUse">
<stop stop-color="#1D1D1D"/>
<stop offset="1" stop-color="#1D1D1D" stop-opacity="0.3"/>
</linearGradient>
<linearGradient id="paint4_linear_2550_12085" x1="228" y1="364" x2="20" y2="364" gradientUnits="userSpaceOnUse">
<stop stop-color="#1D1D1D"/>
<stop offset="1" stop-color="#1D1D1D" stop-opacity="0.3"/>
</linearGradient>
<linearGradient id="paint5_linear_2550_12085" x1="228" y1="408" x2="20" y2="408" gradientUnits="userSpaceOnUse">
<stop stop-color="#1D1D1D"/>
<stop offset="1" stop-color="#1D1D1D" stop-opacity="0.3"/>
</linearGradient>
<linearGradient id="paint6_linear_2550_12085" x1="228" y1="452" x2="20" y2="452" gradientUnits="userSpaceOnUse">
<stop stop-color="#1D1D1D"/>
<stop offset="1" stop-color="#1D1D1D" stop-opacity="0.3"/>
</linearGradient>
<clipPath id="clip0_2550_12085">
<rect width="1200" height="1595" fill="white"/>
</clipPath>
<clipPath id="clip1_2550_12085">
<rect width="1200" height="1595" fill="white"/>
</clipPath>
<clipPath id="clip2_2550_12085">
<rect width="1200" height="1595" fill="white"/>
</clipPath>
<clipPath id="clip3_2550_12085">
<rect width="240" height="20" fill="white" transform="translate(0 76)"/>
</clipPath>
<clipPath id="clip4_2550_12085">
<rect width="960" height="1607" fill="white" transform="translate(240)"/>
</clipPath>
<clipPath id="clip5_2550_12085">
<rect width="20" height="20" fill="white" transform="translate(1029 96)"/>
</clipPath>
<clipPath id="clip6_2550_12085">
<rect width="1038" height="40" fill="white" transform="translate(280 152)"/>
</clipPath>
<clipPath id="clip7_2550_12085">
<rect width="220" height="36" fill="white" transform="translate(280 156)"/>
</clipPath>
<clipPath id="clip8_2550_12085">
<rect width="240" height="20" fill="white" transform="translate(0 100)"/>
</clipPath>
</defs>
</svg>
