<svg
  width="48"
  height="48"
  viewBox="0 0 48 48"
  xmlns="http://www.w3.org/2000/svg"
>
  <!-- Background -->
  <rect width="48" height="48" rx="8" ry="8" fill="#3B82F6" />

  <!-- Dynamic flame (gradient) -->
  <defs>
    <linearGradient id="flameGradient" x1="0%" y1="0%" x2="0%" y2="100%">
      <stop offset="0%" stop-color="white"/>
      <stop offset="100%" stop-color="#F3F3F3"/>
    </linearGradient>
  </defs>
  <path
    d="M25.5 12c3.2 4.3 6.9 9.1 6.9 14.4 0 5-3.4 9.7-7.3 11.3-3.8-1.6-7.1-6.1-7.1-11.3 0-4.1 2.3-8 4.8-11.4 0.7 1.6 1.9 2.7 2.7 4.2 0.7-2.6 0.9-4.9 0-7.2z"
    fill="url(#flameGradient)"
  />
  <path
    d="M25 19c1.8 2.2 3.3 4.6 3.3 7.4 0 2.4-1.6 4.5-3.3 5.5-1.7-1-3.3-3.1-3.3-5.5 0-2.3 1.4-4.6 3.3-7.4z"
    fill="url(#flameGradient)"
  />
</svg>
